<svg width="48" height="47" viewBox="0 0 48 47" fill="none" xmlns="http://www.w3.org/2000/svg">
<path d="M30.2212 32.7479C29.5142 32.7479 28.8493 32.4727 28.3525 31.976C27.9819 31.6053 27.7335 31.1391 27.6379 30.6347C27.5309 30.1188 27.2787 29.6526 26.908 29.2819L25.3604 27.7343C24.9286 27.8871 24.4738 27.9635 24.0115 27.9635C23.5491 27.9635 23.0791 27.8833 22.6396 27.7266L21.0843 29.2819C20.7175 29.6488 20.4652 30.115 20.3582 30.627C20.3544 30.6499 20.3506 30.6767 20.343 30.6996V30.7187L20.3315 30.7608C20.213 31.227 19.9838 31.6359 19.6437 31.976C19.1469 32.4727 18.482 32.7479 17.775 32.7479C17.0681 32.7479 16.407 32.4727 15.9064 31.976C15.4058 31.4754 15.1307 30.8104 15.1345 30.1035C15.1345 29.3965 15.4096 28.7355 15.9064 28.2387C16.2732 27.868 16.7356 27.6234 17.2477 27.5241C17.7636 27.4171 18.2298 27.1649 18.6004 26.798L20.171 25.2275C19.8729 24.36 19.8729 23.4238 20.1787 22.5563L18.6004 20.9781C18.2374 20.6151 17.775 20.3629 17.263 20.2521C17.2286 20.2444 17.198 20.2406 17.1789 20.233H17.1636L17.1254 20.2215C16.6592 20.1068 16.2503 19.8737 15.9064 19.5336C14.8746 18.5019 14.8746 16.8243 15.9064 15.7964C16.407 15.2958 17.0681 15.0245 17.775 15.0245C18.482 15.0245 19.1469 15.2996 19.6437 15.7964C20.0143 16.167 20.2589 16.6294 20.3582 17.1338C20.4652 17.6497 20.7175 18.1197 21.0881 18.4866L22.6702 20.0686C23.102 19.9196 23.5567 19.8394 24.0153 19.8394C24.4738 19.8394 24.9133 19.9158 25.3375 20.061L26.908 18.4904C27.2749 18.1236 27.5233 17.6612 27.6341 17.1491C27.6379 17.1186 27.6456 17.0918 27.6494 17.0765V17.0536L27.6647 17.0116C27.7793 16.5492 28.0124 16.1403 28.3525 15.7964C28.8531 15.2958 29.518 15.0206 30.2212 15.0206C30.9243 15.0206 31.593 15.2958 32.0898 15.7925C33.1216 16.8243 33.1216 18.5019 32.0898 19.5298C31.7191 19.9005 31.2567 20.1451 30.7485 20.2444C30.2326 20.3514 29.7664 20.6036 29.3957 20.9743L27.8405 22.5296C28.1576 23.4085 28.1615 24.3677 27.8481 25.2504L29.3919 26.798C29.7588 27.1611 30.2212 27.4133 30.7294 27.5241C30.7638 27.5317 30.7944 27.5355 30.8135 27.5432H30.8288L30.867 27.5547C31.3332 27.6693 31.742 27.9024 32.0821 28.2425C32.5789 28.7393 32.8541 29.4042 32.8541 30.1073C32.8541 30.8143 32.5789 31.4792 32.0783 31.9798C31.5816 32.4766 30.9166 32.7517 30.2097 32.7517L30.2212 32.7479Z" stroke="#EF008F" stroke-width="0.289681" stroke-miterlimit="10"/>
<path d="M31.4707 28.8572C31.2376 28.6241 30.9624 28.4751 30.6644 28.3987C30.6338 28.3949 30.6109 28.3834 30.5803 28.3834C29.9001 28.242 29.2734 27.9096 28.7804 27.4128L26.8086 25.441C27.3436 24.4742 27.3398 23.2972 26.7972 22.3342L28.7804 20.3509C29.2772 19.8541 29.9001 19.5217 30.5803 19.3803C30.9089 19.3192 31.2185 19.1587 31.4707 18.9065C32.1547 18.2224 32.1623 17.1028 31.4707 16.4111C30.779 15.7195 29.6594 15.7233 28.9753 16.4111C28.7422 16.6442 28.5932 16.9194 28.5168 17.2174C28.5129 17.248 28.5053 17.2709 28.5015 17.3015C28.3601 17.9855 28.0276 18.6084 27.5309 19.1013L25.5361 21.0961C24.5808 20.5802 23.4267 20.584 22.4714 21.1076L20.4652 19.1013C19.9684 18.6084 19.636 17.9817 19.4946 17.3015C19.4334 16.9729 19.2729 16.6671 19.0207 16.4111C18.3329 15.7233 17.217 15.7195 16.5254 16.4111C15.8337 17.1028 15.8375 18.2186 16.5254 18.9065C16.7585 19.1396 17.0336 19.2886 17.3317 19.3612C17.3622 19.365 17.3852 19.3765 17.4158 19.3765C18.0998 19.5179 18.7226 19.8503 19.2156 20.3471L21.2218 22.3533C20.6945 23.3048 20.6945 24.4589 21.2104 25.418L19.2156 27.4128C18.7226 27.9057 18.096 28.242 17.4158 28.3796C17.0871 28.4407 16.7776 28.6012 16.5254 28.8534C15.8414 29.5374 15.8337 30.6571 16.5254 31.3488C17.217 32.0404 18.3367 32.0328 19.0207 31.3488C19.2538 31.1157 19.4028 30.8405 19.4793 30.5425C19.4831 30.5119 19.4907 30.489 19.4984 30.4584C19.6398 29.7782 19.9722 29.1515 20.4652 28.6585L22.4485 26.6753C23.4114 27.2179 24.5884 27.2217 25.5552 26.6867L27.527 28.6585C28.0238 29.1553 28.3563 29.7782 28.4977 30.4584C28.5588 30.787 28.7193 31.0927 28.9715 31.3488C29.6594 32.0366 30.7752 32.0404 31.4668 31.3488C32.1585 30.6571 32.1547 29.5374 31.4668 28.8534L31.4707 28.8572Z" fill="white"/>
<path d="M2.79533 32.7017C2.02342 30.856 1.49989 28.8994 1.23622 26.8932L1.12158 26.022L7.6217 25.1698L7.73634 26.0411C7.9274 27.4779 8.30189 28.8727 8.85216 30.1872L9.19227 31.0012L3.13162 33.5156L2.79533 32.7055V32.7017Z" stroke="#EF008F" stroke-width="0.289681" stroke-miterlimit="10"/>
<path d="M8.04196 30.5235L3.60538 32.3615C2.87169 30.6037 2.36345 28.7274 2.10742 26.7747L6.86881 26.1519C7.07134 27.6804 7.46877 29.1478 8.04579 30.5235H8.04196Z" fill="#EF008F"/>
<path d="M10.0445 42.1062C8.45098 40.8834 7.0218 39.4542 5.79515 37.8607L5.25635 37.1614L10.461 33.1719L10.996 33.8674C11.8711 35.0061 12.8952 36.0264 14.034 36.9015L14.7295 37.4365L10.74 42.6412L10.0407 42.1062H10.0445Z" stroke="#EF008F" stroke-width="0.289681" stroke-miterlimit="10"/>
<path d="M13.4988 37.6007L10.5793 41.4105C9.04697 40.2336 7.67128 38.8579 6.49048 37.3255L10.3004 34.406C11.2251 35.6059 12.2989 36.6797 13.4988 37.6007Z" fill="#EF008F"/>
<path d="M21.0156 46.6462C19.0093 46.3864 17.0566 45.8629 15.2071 45.0948L14.397 44.7585L16.9076 38.7017L17.7216 39.0379C19.0399 39.5844 20.4347 39.9589 21.8677 40.1461L22.739 40.2608L21.8868 46.7647L21.0156 46.6501V46.6462Z" stroke="#EF008F" stroke-width="0.289681" stroke-miterlimit="10"/>
<path d="M21.753 41.0172L21.1301 45.7786C19.1774 45.5226 17.3049 45.0182 15.5471 44.2845L17.3852 39.8479C18.7609 40.4211 20.2283 40.8147 21.753 41.0172Z" fill="#EF008F"/>
<path d="M25.2532 40.2608L26.1245 40.1461C27.5575 39.9589 28.9484 39.5882 30.2706 39.0379L31.0846 38.7017L33.5952 44.7585L32.7851 45.0948C30.9393 45.8629 28.9828 46.3864 26.9766 46.6462L26.1054 46.7609L25.2532 40.2569V40.2608Z" stroke="#EF008F" stroke-width="0.289681" stroke-miterlimit="10"/>
<path d="M32.4488 44.2845C30.691 45.0144 28.8185 45.5226 26.8658 45.7748L26.2429 41.0134C27.7676 40.8147 29.235 40.4173 30.6107 39.8479L32.4488 44.2845Z" fill="#EF008F"/>
<path d="M33.2628 37.4404L33.9583 36.9054C35.097 36.0303 36.1212 35.01 37.0001 33.8713L37.535 33.1758L42.7359 37.1653L42.1971 37.8646C40.9704 39.4581 39.5413 40.8834 37.9439 42.1101L37.2446 42.6451L33.2551 37.4404H33.2628Z" stroke="#EF008F" stroke-width="0.289681" stroke-miterlimit="10"/>
<path d="M41.5054 37.3295C40.3246 38.8618 38.9489 40.2337 37.4166 41.4145L34.4971 37.6046C35.697 36.6837 36.7746 35.6099 37.6994 34.41L41.5054 37.3295Z" fill="#EF008F"/>
<path d="M38.8037 31.0012L39.1438 30.1872C39.6941 28.8689 40.0686 27.4741 40.2596 26.0411L40.3743 25.1698L46.8782 26.022L46.7636 26.8932C46.4999 28.9033 45.9726 30.8598 45.2006 32.7055L44.8644 33.5156L38.8075 31.0012H38.8037Z" stroke="#EF008F" stroke-width="0.289681" stroke-miterlimit="10"/>
<path d="M45.8925 26.7786C45.6326 28.7313 45.1244 30.6076 44.3907 32.3655L39.9541 30.5274C40.5311 29.1517 40.9286 27.6843 41.1311 26.1558L45.8925 26.7786Z" fill="#EF008F"/>
<path d="M40.2673 21.7731C40.0839 20.3362 39.7094 18.9376 39.1629 17.6193L38.8267 16.8091L44.8835 14.2947L45.2198 15.1048C45.9879 16.9543 46.5076 18.9109 46.7712 20.9247L46.8821 21.796L40.3781 22.6481L40.2673 21.7731Z" stroke="#EF008F" stroke-width="0.289681" stroke-miterlimit="10"/>
<path d="M45.8962 21.0354L41.1347 21.6583C40.936 20.1259 40.5424 18.6585 39.9692 17.279L44.402 15.4409C45.1319 17.2026 45.6401 19.0788 45.8923 21.0354H45.8962Z" fill="#EF008F"/>
<path d="M37.0232 13.9238C36.1481 12.7812 35.124 11.7571 33.9814 10.8782L33.2859 10.3432L37.2754 5.13855L37.9747 5.67736C39.572 6.90783 41.0012 8.34084 42.2279 9.93434L42.7628 10.6336L37.562 14.6231L37.027 13.9277L37.0232 13.9238Z" stroke="#EF008F" stroke-width="0.289681" stroke-miterlimit="10"/>
<path d="M41.5284 10.4693L37.7223 13.3888C36.7975 12.1851 35.7237 11.1075 34.52 10.1827L37.4395 6.3728C38.9757 7.5536 40.3514 8.93311 41.5284 10.4693Z" fill="#EF008F"/>
<path d="M30.2899 8.73071C28.9715 8.18044 27.5729 7.80594 26.1323 7.6187L25.261 7.50406L26.1131 1.00012L26.9844 1.11476C28.9944 1.37844 30.9548 1.90196 32.8043 2.67387L33.6144 3.01015L31.1 9.06699L30.2861 8.72689L30.2899 8.73071Z" stroke="#EF008F" stroke-width="0.289681" stroke-miterlimit="10"/>
<path d="M32.4679 3.48385L30.626 7.91661C29.2465 7.33959 27.7753 6.94217 26.2429 6.74346L26.8658 1.98206C28.8223 2.23809 30.6986 2.74633 32.4641 3.48002L32.4679 3.48385Z" fill="#EF008F"/>
<path d="M14.3777 3.01394L15.1878 2.67766C17.0373 1.90574 18.9977 1.38222 21.0077 1.11855L21.879 1.00391L22.7311 7.50784L21.8599 7.62248C20.423 7.80973 19.0245 8.18422 17.7023 8.7345L16.8883 9.0746L14.3777 3.01776V3.01394Z" stroke="#EF008F" stroke-width="0.289681" stroke-miterlimit="10"/>
<path d="M21.7453 6.74745C20.213 6.94616 18.7417 7.3474 17.3622 7.9206L15.5242 3.48784C17.2858 2.75414 19.1621 2.2459 21.1186 1.98987L21.7415 6.75127L21.7453 6.74745Z" fill="#EF008F"/>
<path d="M5.23706 10.6336L5.77206 9.93434C6.99489 8.33702 8.4279 6.90401 10.0252 5.67736L10.7245 5.13855L14.714 10.3432L14.0185 10.8782C12.876 11.7571 11.8518 12.7812 10.9806 13.9238L10.4456 14.6231L5.24089 10.6336H5.23706Z" stroke="#EF008F" stroke-width="0.289681" stroke-miterlimit="10"/>
<path d="M13.4759 10.1827C12.276 11.1075 11.1984 12.1851 10.2736 13.3888L6.46753 10.4693C7.6445 8.93311 9.0202 7.5536 10.5564 6.3728L13.4759 10.1827Z" fill="#EF008F"/>
<path d="M1.11768 21.7922L1.22849 20.9209C1.48834 18.9109 2.00806 16.9543 2.77615 15.1048L3.11241 14.2947L9.16926 16.8091L8.83298 17.6193C8.28653 18.9414 7.91203 20.3362 7.72861 21.7731L7.61779 22.6481L1.11768 21.796V21.7922Z" stroke="#EF008F" stroke-width="0.289681" stroke-miterlimit="10"/>
<path d="M8.02685 17.2829C7.45365 18.6624 7.06003 20.1298 6.86132 21.6583L2.10376 21.0355C2.35597 19.0789 2.86037 17.2026 3.59407 15.4448L8.02685 17.2867V17.2829Z" fill="#EF008F"/>
</svg>
