<svg width="330" height="74" viewBox="0 0 330 74" fill="none" xmlns="http://www.w3.org/2000/svg">
<g clip-path="url(#clip0_126_4461)">
<path d="M45.135 48.2313C44.2543 48.2313 43.4261 47.8886 42.8072 47.2698C42.3455 46.808 42.036 46.2272 41.917 45.5989C41.7837 44.9562 41.4695 44.3755 41.0078 43.9137L39.0799 41.9858C38.542 42.1762 37.9755 42.2714 37.3995 42.2714C36.8235 42.2714 36.238 42.1715 35.6905 41.9763L33.7531 43.9137C33.2961 44.3707 32.9819 44.9515 32.8486 45.5894C32.8438 45.6179 32.8391 45.6512 32.8296 45.6798V45.7036L32.8153 45.756C32.6677 46.3367 32.3821 46.8461 31.9584 47.2698C31.3396 47.8886 30.5113 48.2313 29.6306 48.2313C28.75 48.2313 27.9264 47.8886 27.3028 47.2698C26.6792 46.6462 26.3365 45.8179 26.3412 44.9372C26.3412 44.0565 26.684 43.233 27.3028 42.6142C27.7598 42.1524 28.3358 41.8477 28.9737 41.724C29.6164 41.5907 30.1971 41.2765 30.6589 40.8195L32.6153 38.863C32.244 37.7824 32.244 36.6162 32.6249 35.5356L30.6589 33.5695C30.2066 33.1173 29.6306 32.8031 28.9927 32.6651C28.9499 32.6556 28.9118 32.6508 28.888 32.6413H28.869L28.8214 32.627C28.2406 32.4842 27.7313 32.1938 27.3028 31.7701C26.0175 30.4849 26.0175 28.3951 27.3028 27.1145C27.9264 26.4909 28.75 26.153 29.6306 26.153C30.5113 26.153 31.3396 26.4957 31.9584 27.1145C32.4202 27.5763 32.7248 28.1523 32.8486 28.7807C32.9819 29.4233 33.2961 30.0088 33.7578 30.4658L35.7286 32.4366C36.2665 32.2509 36.833 32.151 37.4042 32.151C37.9755 32.151 38.5229 32.2462 39.0513 32.4271L41.0078 30.4706C41.4648 30.0136 41.7742 29.4376 41.9123 28.7997C41.917 28.7616 41.9265 28.7283 41.9313 28.7092V28.6807L41.9503 28.6283C42.0931 28.0523 42.3835 27.543 42.8072 27.1145C43.4308 26.4909 44.2591 26.1482 45.135 26.1482C46.0109 26.1482 46.844 26.4909 47.4628 27.1098C48.7481 28.3951 48.7481 30.4848 47.4628 31.7654C47.001 32.2271 46.425 32.5318 45.7919 32.6556C45.1493 32.7888 44.5685 33.103 44.1068 33.5648L42.1693 35.5022C42.5644 36.5971 42.5692 37.7919 42.1788 38.8916L44.102 40.8195C44.559 41.2717 45.135 41.5859 45.7681 41.724C45.811 41.7335 45.8491 41.7383 45.8729 41.7478H45.8919L45.9395 41.7621C46.5202 41.9049 47.0296 42.1953 47.4533 42.6189C48.0721 43.2378 48.4149 44.0661 48.4149 44.942C48.4149 45.8226 48.0721 46.6509 47.4485 47.2745C46.8297 47.8934 46.0014 48.2361 45.1207 48.2361L45.135 48.2313Z" stroke="#DDE404" stroke-width="0.218975" stroke-miterlimit="10"/>
<path d="M46.6917 43.3851C46.4014 43.0948 46.0586 42.9091 45.6873 42.8139C45.6492 42.8091 45.6207 42.7949 45.5826 42.7949C44.7352 42.6187 43.9546 42.2046 43.3405 41.5857L40.8841 39.1294C41.5506 37.925 41.5458 36.4589 40.8699 35.2593L43.3405 32.7887C43.9593 32.1698 44.7352 31.7557 45.5826 31.5795C45.992 31.5034 46.3776 31.3034 46.6917 30.9892C47.5438 30.1372 47.5534 28.7424 46.6917 27.8808C45.8301 27.0191 44.4354 27.0239 43.5833 27.8808C43.2929 28.1711 43.1072 28.5139 43.012 28.8852C43.0073 28.9233 42.9977 28.9518 42.993 28.9899C42.8168 29.842 42.4027 30.6179 41.7838 31.232L39.299 33.7169C38.1089 33.0743 36.6713 33.079 35.4812 33.7312L32.982 31.232C32.3632 30.6179 31.949 29.8373 31.7729 28.9899C31.6967 28.5805 31.4968 28.1997 31.1826 27.8808C30.3257 27.0239 28.9357 27.0191 28.0741 27.8808C27.2125 28.7424 27.2173 30.1324 28.0741 30.9892C28.3645 31.2796 28.7072 31.4653 29.0785 31.5557C29.1166 31.5605 29.1452 31.5748 29.1833 31.5748C30.0354 31.7509 30.8113 32.165 31.4254 32.7839L33.9245 35.2831C33.2676 36.4684 33.2676 37.906 33.9103 39.1008L31.4254 41.5857C30.8113 42.1998 30.0306 42.6187 29.1833 42.7901C28.7739 42.8663 28.3883 43.0662 28.0741 43.3804C27.222 44.2325 27.2125 45.6272 28.0741 46.4889C28.9357 47.3505 30.3305 47.341 31.1826 46.4889C31.473 46.1985 31.6586 45.8557 31.7538 45.4844C31.7586 45.4464 31.7681 45.4178 31.7776 45.3797C31.9538 44.5324 32.3679 43.7517 32.982 43.1376L35.4526 40.667C36.6522 41.343 38.1184 41.3477 39.3228 40.6813L41.7791 43.1376C42.3979 43.7564 42.8121 44.5324 42.9882 45.3797C43.0644 45.7891 43.2643 46.1699 43.5785 46.4889C44.4354 47.3457 45.8254 47.3505 46.687 46.4889C47.5486 45.6272 47.5438 44.2325 46.687 43.3804L46.6917 43.3851Z" fill="white"/>
<path d="M10.9703 48.1741C10.0087 45.8749 9.35652 43.4376 9.02806 40.9384L8.88525 39.8531L16.9826 38.7915L17.1254 39.8769C17.3634 41.6667 17.8299 43.4043 18.5154 45.0418L18.9391 46.0558L11.3892 49.1881L10.9703 48.1789V48.1741Z" stroke="#DDE404" stroke-width="0.218975" stroke-miterlimit="10"/>
<path d="M17.5061 45.4605L11.9793 47.7502C11.0653 45.5604 10.4322 43.2231 10.1133 40.7906L16.0446 40.0146C16.2969 41.9188 16.792 43.7467 17.5108 45.4605H17.5061Z" fill="#EF008F"/>
<path d="M20.0006 59.8894C18.0155 58.3661 16.2351 56.5857 14.7071 54.6007L14.0359 53.7295L20.5194 48.7598L21.1859 49.6261C22.276 51.0447 23.5518 52.3157 24.9703 53.4058L25.8367 54.0723L20.8669 60.5559L19.9958 59.8894H20.0006Z" stroke="#DDE404" stroke-width="0.218975" stroke-miterlimit="10"/>
<path d="M24.3039 54.277L20.667 59.023C18.7581 57.5569 17.0444 55.8431 15.5735 53.9343L20.3195 50.2974C21.4715 51.7921 22.8092 53.1298 24.3039 54.277Z" fill="#DDE404"/>
<path d="M33.6675 65.5447C31.1683 65.221 28.7358 64.5688 26.4318 63.612L25.4226 63.1931L28.5501 55.6479L29.5641 56.0669C31.2064 56.7476 32.9439 57.2141 34.729 57.4474L35.8144 57.5902L34.7528 65.6922L33.6675 65.5494V65.5447Z" stroke="#DDE404" stroke-width="0.218975" stroke-miterlimit="10"/>
<path d="M34.5862 58.5326L33.8103 64.464C31.3778 64.145 29.0452 63.5166 26.8555 62.6027L29.1452 57.0759C30.8589 57.79 32.6869 58.2803 34.5862 58.5326Z" fill="#EF008F"/>
<path d="M38.9465 57.5902L40.0319 57.4474C41.817 57.2141 43.5498 56.7523 45.1968 56.0669L46.2108 55.6479L49.3383 63.1931L48.3291 63.612C46.0299 64.5688 43.5926 65.221 41.0934 65.5447L40.0081 65.6875L38.9465 57.5854V57.5902Z" stroke="#DDE404" stroke-width="0.218975" stroke-miterlimit="10"/>
<path d="M47.9102 62.6027C45.7205 63.5119 43.3879 64.145 40.9554 64.4592L40.1794 58.5278C42.0788 58.2803 43.9068 57.7852 45.6205 57.0759L47.9102 62.6027Z" fill="#DDE404"/>
<path d="M48.9243 54.0769L49.7907 53.4105C51.2093 52.3204 52.4851 51.0494 53.5799 49.6308L54.2464 48.7644L60.7252 53.7342L60.054 54.6053C58.5259 56.5904 56.7455 58.366 54.7557 59.894L53.8846 60.5605L48.9148 54.0769H48.9243Z" stroke="#DDE404" stroke-width="0.218975" stroke-miterlimit="10"/>
<path d="M59.1924 53.9391C57.7214 55.848 56.0077 57.557 54.0988 59.0279L50.4619 54.2819C51.9567 53.1346 53.2991 51.797 54.4511 50.3022L59.1924 53.9391Z" fill="#EF008F"/>
<path d="M55.8267 46.0558L56.2503 45.0418C56.9358 43.3995 57.4023 41.662 57.6403 39.8769L57.7831 38.7915L65.8852 39.8531L65.7424 40.9384C65.414 43.4423 64.757 45.8796 63.7954 48.1789L63.3765 49.1881L55.8314 46.0558H55.8267Z" stroke="#DDE404" stroke-width="0.218975" stroke-miterlimit="10"/>
<path d="M64.6571 40.796C64.3334 43.2285 63.7002 45.5658 62.7863 47.7555L57.2595 45.4658C57.9783 43.7521 58.4734 41.9241 58.7257 40.02L64.6571 40.796Z" fill="#DDE404"/>
<path d="M57.6499 34.5596C57.4214 32.7697 56.9549 31.0274 56.2741 29.3851L55.8552 28.3759L63.4003 25.2437L63.8192 26.2528C64.7761 28.5568 65.4235 30.9941 65.7519 33.5028L65.89 34.5882L57.7879 35.6497L57.6499 34.5596Z" stroke="#DDE404" stroke-width="0.218975" stroke-miterlimit="10"/>
<path d="M64.6618 33.6407L58.7305 34.4167C58.4829 32.5078 57.9926 30.6798 57.2786 28.9613L62.8006 26.6716C63.7098 28.8661 64.3429 31.2035 64.6571 33.6407H64.6618Z" fill="#EF008F"/>
<path d="M53.6085 24.7819C52.5184 23.3585 51.2426 22.0828 49.8193 20.9879L48.9529 20.3215L53.9227 13.8379L54.7938 14.5091C56.7836 16.0419 58.564 17.827 60.0921 19.8121L60.7585 20.6832L54.2797 25.653L53.6132 24.7866L53.6085 24.7819Z" stroke="#DDE404" stroke-width="0.218975" stroke-miterlimit="10"/>
<path d="M59.2207 20.4786L54.4794 24.1154C53.3274 22.6159 51.9897 21.2735 50.4902 20.1215L54.1271 15.3755C56.0408 16.8464 57.7545 18.5649 59.2207 20.4786Z" fill="#DDE404"/>
<path d="M45.2207 18.313C43.5783 17.6275 41.8361 17.161 40.0414 16.9277L38.9561 16.7849L40.0176 8.68286L41.103 8.82567C43.6069 9.15413 46.0489 9.8063 48.3529 10.7679L49.3621 11.1868L46.2298 18.7319L45.2159 18.3082L45.2207 18.313Z" stroke="#DDE404" stroke-width="0.218975" stroke-miterlimit="10"/>
<path d="M47.934 11.7768L45.6395 17.2988C43.921 16.58 42.0883 16.0849 40.1794 15.8374L40.9554 9.90601C43.3927 10.2249 45.73 10.8581 47.9292 11.7721L47.934 11.7768Z" fill="#EF008F"/>
<path d="M25.3987 11.1914L26.4079 10.7725C28.7119 9.81094 31.1539 9.15877 33.6578 8.83031L34.7432 8.6875L35.8047 16.7896L34.7194 16.9324C32.9295 17.1656 31.1872 17.6322 29.5402 18.3176L28.5262 18.7413L25.3987 11.1962V11.1914Z" stroke="#DDE404" stroke-width="0.218975" stroke-miterlimit="10"/>
<path d="M34.5765 15.8416C32.6676 16.0892 30.8349 16.589 29.1164 17.3031L26.8267 11.7811C29.0212 10.8671 31.3585 10.234 33.7958 9.91504L34.5717 15.8464L34.5765 15.8416Z" fill="#DDE404"/>
<path d="M14.0122 20.6832L14.6787 19.8121C16.202 17.8223 17.9871 16.0372 19.9769 14.5091L20.8481 13.8379L25.8178 20.3215L24.9515 20.9879C23.5281 22.0828 22.2523 23.3585 21.167 24.7819L20.5005 25.653L14.017 20.6832H14.0122Z" stroke="#DDE404" stroke-width="0.218975" stroke-miterlimit="10"/>
<path d="M24.2754 20.1215C22.7806 21.2735 21.4382 22.6159 20.2862 24.1154L15.5449 20.4786C17.0111 18.5649 18.7248 16.8464 20.6385 15.3755L24.2754 20.1215Z" fill="#EF008F"/>
<path d="M8.88037 34.5834L9.01841 33.4981C9.34211 30.9941 9.98954 28.5568 10.9464 26.2528L11.3652 25.2437L18.9104 28.3759L18.4915 29.3851C17.8107 31.0322 17.3442 32.7697 17.1157 34.5596L16.9777 35.6497L8.88037 34.5882V34.5834Z" stroke="#DDE404" stroke-width="0.218975" stroke-miterlimit="10"/>
<path d="M17.4871 28.9662C16.7731 30.6847 16.2828 32.5127 16.0352 34.4168L10.1086 33.6409C10.4228 31.2036 11.0512 28.8663 11.9652 26.6765L17.4871 28.971V28.9662Z" fill="#DDE404"/>
<path d="M300.186 48.2313C299.305 48.2313 298.477 47.8886 297.858 47.2698C297.396 46.808 297.087 46.2272 296.968 45.5989C296.835 44.9562 296.521 44.3755 296.059 43.9137L294.131 41.9858C293.593 42.1762 293.026 42.2714 292.45 42.2714C291.874 42.2714 291.289 42.1715 290.742 41.9763L288.804 43.9137C288.347 44.3707 288.033 44.9515 287.9 45.5894C287.895 45.6179 287.89 45.6512 287.881 45.6798V45.7036L287.866 45.756C287.719 46.3367 287.433 46.8461 287.009 47.2698C286.391 47.8886 285.562 48.2313 284.682 48.2313C283.801 48.2313 282.977 47.8886 282.354 47.2698C281.73 46.6462 281.388 45.8179 281.392 44.9372C281.392 44.0565 281.735 43.233 282.354 42.6142C282.811 42.1524 283.387 41.8477 284.025 41.724C284.667 41.5907 285.248 41.2765 285.71 40.8195L287.666 38.863C287.295 37.7824 287.295 36.6162 287.676 35.5356L285.71 33.5695C285.258 33.1173 284.682 32.8031 284.044 32.6651C284.001 32.6556 283.963 32.6508 283.939 32.6413H283.92L283.872 32.627C283.292 32.4842 282.782 32.1938 282.354 31.7701C281.069 30.4849 281.069 28.3951 282.354 27.1145C282.977 26.4909 283.801 26.153 284.682 26.153C285.562 26.153 286.391 26.4957 287.009 27.1145C287.471 27.5763 287.776 28.1523 287.9 28.7807C288.033 29.4233 288.347 30.0088 288.809 30.4658L290.78 32.4366C291.318 32.2509 291.884 32.151 292.455 32.151C293.026 32.151 293.574 32.2462 294.102 32.4271L296.059 30.4706C296.516 30.0136 296.825 29.4376 296.963 28.7997C296.968 28.7616 296.978 28.7283 296.982 28.7092V28.6807L297.001 28.6283C297.144 28.0523 297.435 27.543 297.858 27.1145C298.482 26.4909 299.31 26.1482 300.186 26.1482C301.062 26.1482 301.895 26.4909 302.514 27.1098C303.799 28.3951 303.799 30.4848 302.514 31.7654C302.052 32.2271 301.476 32.5318 300.843 32.6556C300.2 32.7888 299.62 33.103 299.158 33.5648L297.22 35.5022C297.615 36.5971 297.62 37.7919 297.23 38.8916L299.153 40.8195C299.61 41.2717 300.186 41.5859 300.819 41.724C300.862 41.7335 300.9 41.7383 300.924 41.7478H300.943L300.991 41.7621C301.571 41.9049 302.081 42.1953 302.504 42.6189C303.123 43.2378 303.466 44.0661 303.466 44.942C303.466 45.8226 303.123 46.6509 302.5 47.2745C301.881 47.8934 301.052 48.2361 300.172 48.2361L300.186 48.2313Z" stroke="#DDE404" stroke-width="0.218975" stroke-miterlimit="10"/>
<path d="M301.743 43.3851C301.452 43.0948 301.11 42.9091 300.738 42.8139C300.7 42.8091 300.672 42.7949 300.634 42.7949C299.786 42.6187 299.006 42.2046 298.392 41.5857L295.935 39.1294C296.602 37.925 296.597 36.4589 295.921 35.2593L298.392 32.7887C299.01 32.1698 299.786 31.7557 300.634 31.5795C301.043 31.5034 301.429 31.3034 301.743 30.9892C302.595 30.1372 302.604 28.7424 301.743 27.8808C300.881 27.0191 299.486 27.0239 298.634 27.8808C298.344 28.1711 298.158 28.5139 298.063 28.8852C298.058 28.9233 298.049 28.9518 298.044 28.9899C297.868 29.842 297.454 30.6179 296.835 31.232L294.35 33.7169C293.16 33.0743 291.722 33.079 290.532 33.7312L288.033 31.232C287.414 30.6179 287 29.8373 286.824 28.9899C286.748 28.5805 286.548 28.1997 286.234 27.8808C285.377 27.0239 283.987 27.0191 283.125 27.8808C282.264 28.7424 282.268 30.1324 283.125 30.9892C283.416 31.2796 283.758 31.4653 284.13 31.5557C284.168 31.5605 284.196 31.5748 284.234 31.5748C285.086 31.7509 285.862 32.165 286.476 32.7839L288.976 35.2831C288.319 36.4684 288.319 37.906 288.961 39.1008L286.476 41.5857C285.862 42.1998 285.082 42.6187 284.234 42.7901C283.825 42.8663 283.439 43.0662 283.125 43.3804C282.273 44.2325 282.264 45.6272 283.125 46.4889C283.987 47.3505 285.382 47.341 286.234 46.4889C286.524 46.1985 286.71 45.8557 286.805 45.4844C286.81 45.4464 286.819 45.4178 286.829 45.3797C287.005 44.5324 287.419 43.7517 288.033 43.1376L290.504 40.667C291.703 41.343 293.169 41.3477 294.374 40.6813L296.83 43.1376C297.449 43.7564 297.863 44.5324 298.039 45.3797C298.115 45.7891 298.315 46.1699 298.63 46.4889C299.486 47.3457 300.876 47.3505 301.738 46.4889C302.6 45.6272 302.595 44.2325 301.738 43.3804L301.743 43.3851Z" fill="white"/>
<path d="M266.021 48.1741C265.059 45.8749 264.407 43.4376 264.079 40.9384L263.936 39.8531L272.033 38.7915L272.176 39.8769C272.414 41.6667 272.881 43.4043 273.566 45.0418L273.99 46.0558L266.44 49.1881L266.021 48.1789V48.1741Z" stroke="#DDE404" stroke-width="0.218975" stroke-miterlimit="10"/>
<path d="M272.557 45.4605L267.03 47.7502C266.116 45.5604 265.483 43.2231 265.164 40.7906L271.096 40.0146C271.348 41.9188 271.843 43.7467 272.562 45.4605H272.557Z" fill="#EF008F"/>
<path d="M275.052 59.8894C273.067 58.3661 271.286 56.5857 269.758 54.6007L269.087 53.7295L275.57 48.7598L276.237 49.6261C277.327 51.0447 278.603 52.3157 280.021 53.4058L280.888 54.0723L275.918 60.5559L275.047 59.8894H275.052Z" stroke="#DDE404" stroke-width="0.218975" stroke-miterlimit="10"/>
<path d="M279.355 54.277L275.718 59.023C273.809 57.5569 272.095 55.8431 270.625 53.9343L275.371 50.2974C276.523 51.7921 277.86 53.1298 279.355 54.277Z" fill="#DDE404"/>
<path d="M288.718 65.5447C286.219 65.221 283.787 64.5688 281.483 63.612L280.473 63.1931L283.601 55.6479L284.615 56.0669C286.257 56.7476 287.995 57.2141 289.78 57.4474L290.865 57.5902L289.804 65.6922L288.718 65.5494V65.5447Z" stroke="#DDE404" stroke-width="0.218975" stroke-miterlimit="10"/>
<path d="M289.637 58.5326L288.861 64.464C286.429 64.145 284.096 63.5166 281.906 62.6027L284.196 57.0759C285.91 57.79 287.738 58.2803 289.637 58.5326Z" fill="#EF008F"/>
<path d="M293.998 57.5902L295.083 57.4474C296.868 57.2141 298.601 56.7523 300.248 56.0669L301.262 55.6479L304.389 63.1931L303.38 63.612C301.081 64.5688 298.644 65.221 296.144 65.5447L295.059 65.6875L293.998 57.5854V57.5902Z" stroke="#DDE404" stroke-width="0.218975" stroke-miterlimit="10"/>
<path d="M302.961 62.6027C300.771 63.5119 298.439 64.145 296.006 64.4592L295.23 58.5278C297.13 58.2803 298.958 57.7852 300.672 57.0759L302.961 62.6027Z" fill="#DDE404"/>
<path d="M303.975 54.0769L304.841 53.4105C306.26 52.3204 307.536 51.0494 308.631 49.6308L309.297 48.7644L315.776 53.7342L315.105 54.6053C313.577 56.5904 311.796 58.366 309.807 59.894L308.935 60.5605L303.966 54.0769H303.975Z" stroke="#DDE404" stroke-width="0.218975" stroke-miterlimit="10"/>
<path d="M314.243 53.9391C312.772 55.848 311.058 57.557 309.15 59.0279L305.513 54.2819C307.007 53.1346 308.35 51.797 309.502 50.3022L314.243 53.9391Z" fill="#EF008F"/>
<path d="M310.878 46.0558L311.301 45.0418C311.987 43.3995 312.453 41.662 312.691 39.8769L312.834 38.7915L320.936 39.8531L320.793 40.9384C320.465 43.4423 319.808 45.8796 318.846 48.1789L318.428 49.1881L310.882 46.0558H310.878Z" stroke="#DDE404" stroke-width="0.218975" stroke-miterlimit="10"/>
<path d="M319.708 40.796C319.384 43.2285 318.751 45.5658 317.837 47.7555L312.311 45.4658C313.029 43.7521 313.524 41.9241 313.777 40.02L319.708 40.796Z" fill="#DDE404"/>
<path d="M312.701 34.5596C312.472 32.7697 312.006 31.0274 311.325 29.3851L310.906 28.3759L318.451 25.2437L318.87 26.2528C319.827 28.5568 320.474 30.9941 320.803 33.5028L320.941 34.5882L312.839 35.6497L312.701 34.5596Z" stroke="#DDE404" stroke-width="0.218975" stroke-miterlimit="10"/>
<path d="M319.713 33.6407L313.781 34.4167C313.534 32.5078 313.044 30.6798 312.33 28.9613L317.852 26.6716C318.761 28.8661 319.394 31.2035 319.708 33.6407H319.713Z" fill="#EF008F"/>
<path d="M308.66 24.7819C307.569 23.3585 306.294 22.0828 304.87 20.9879L304.004 20.3215L308.974 13.8379L309.845 14.5091C311.835 16.0419 313.615 17.827 315.143 19.8121L315.81 20.6832L309.331 25.653L308.664 24.7866L308.66 24.7819Z" stroke="#DDE404" stroke-width="0.218975" stroke-miterlimit="10"/>
<path d="M314.272 20.4786L309.53 24.1154C308.378 22.6159 307.041 21.2735 305.541 20.1215L309.178 15.3755C311.092 16.8464 312.806 18.5649 314.272 20.4786Z" fill="#DDE404"/>
<path d="M300.272 18.313C298.629 17.6275 296.887 17.161 295.092 16.9277L294.007 16.7849L295.069 8.68286L296.154 8.82567C298.658 9.15413 301.1 9.8063 303.404 10.7679L304.413 11.1868L301.281 18.7319L300.267 18.3082L300.272 18.313Z" stroke="#DDE404" stroke-width="0.218975" stroke-miterlimit="10"/>
<path d="M302.985 11.7768L300.691 17.2988C298.972 16.58 297.139 16.0849 295.23 15.8374L296.006 9.90601C298.444 10.2249 300.781 10.8581 302.98 11.7721L302.985 11.7768Z" fill="#EF008F"/>
<path d="M280.45 11.1914L281.459 10.7725C283.763 9.81094 286.205 9.15877 288.709 8.83031L289.794 8.6875L290.856 16.7896L289.77 16.9324C287.981 17.1656 286.238 17.6322 284.591 18.3176L283.577 18.7413L280.45 11.1962V11.1914Z" stroke="#DDE404" stroke-width="0.218975" stroke-miterlimit="10"/>
<path d="M289.627 15.8416C287.719 16.0892 285.886 16.589 284.167 17.3031L281.878 11.7811C284.072 10.8671 286.41 10.234 288.847 9.91504L289.623 15.8464L289.627 15.8416Z" fill="#DDE404"/>
<path d="M269.063 20.6832L269.729 19.8121C271.253 17.8223 273.038 16.0372 275.028 14.5091L275.899 13.8379L280.869 20.3215L280.002 20.9879C278.579 22.0828 277.303 23.3585 276.218 24.7819L275.551 25.653L269.068 20.6832H269.063Z" stroke="#DDE404" stroke-width="0.218975" stroke-miterlimit="10"/>
<path d="M279.326 20.1215C277.831 21.2735 276.489 22.6159 275.337 24.1154L270.596 20.4786C272.062 18.5649 273.776 16.8464 275.689 15.3755L279.326 20.1215Z" fill="#EF008F"/>
<path d="M263.931 34.5834L264.069 33.4981C264.393 30.9941 265.041 28.5568 265.997 26.2528L266.416 25.2437L273.961 28.3759L273.542 29.3851C272.862 31.0322 272.395 32.7697 272.167 34.5596L272.029 35.6497L263.931 34.5882V34.5834Z" stroke="#DDE404" stroke-width="0.218975" stroke-miterlimit="10"/>
<path d="M272.538 28.9662C271.824 30.6847 271.334 32.5127 271.086 34.4168L265.159 33.6409C265.474 31.2036 266.102 28.8663 267.016 26.6765L272.538 28.971V28.9662Z" fill="#DDE404"/>
<path d="M293.731 1.72314H36.2737C16.6873 1.72314 0.809326 17.6011 0.809326 37.1876C0.809326 56.774 16.6873 72.652 36.2737 72.652H293.731C313.318 72.652 329.195 56.774 329.195 37.1876C329.195 17.6011 313.318 1.72314 293.731 1.72314Z" stroke="white" stroke-width="1.61375" stroke-miterlimit="10"/>
<path d="M76.034 27.3758H96.8696V29.7911C96.8696 30.552 96.7723 31.2244 96.5777 31.8083C96.383 32.3746 96.0645 32.9673 95.6221 33.5867C95.1798 34.1883 94.4897 35.0376 93.5519 36.1347C92.4725 37.3203 91.6143 38.3466 90.9773 39.2136C90.3579 40.063 89.8271 41.045 89.3847 42.1598C88.9601 43.2569 88.6858 44.522 88.5619 45.9553H80.3869C80.5108 43.8673 81.192 41.9386 82.4307 40.1691C83.687 38.382 85.3503 36.5594 87.4206 34.7014C87.5622 34.5599 87.7037 34.4183 87.8453 34.2768C88.0045 34.1352 88.1549 33.9936 88.2965 33.8521C88.6681 33.4982 89.0043 33.1885 89.3051 32.9231C89.6059 32.64 89.8448 32.4188 90.0217 32.2596V32.1268H76.034V27.3758ZM98.1439 27.3758H118.979V29.7911C118.979 30.552 118.882 31.2244 118.688 31.8083C118.493 32.3746 118.174 32.9673 117.732 33.5867C117.29 34.1883 116.6 35.0376 115.662 36.1347C114.582 37.3203 113.724 38.3466 113.087 39.2136C112.468 40.063 111.937 41.045 111.495 42.1598C111.07 43.2569 110.796 44.522 110.672 45.9553H102.497C102.621 43.8673 103.302 41.9386 104.541 40.1691C105.797 38.382 107.46 36.5594 109.53 34.7014C109.672 34.5599 109.814 34.4183 109.955 34.2768C110.114 34.1352 110.265 33.9936 110.406 33.8521C110.778 33.4982 111.114 33.1885 111.415 32.9231C111.716 32.64 111.955 32.4188 112.132 32.2596V32.1268H98.1439V27.3758ZM120.254 27.3758H141.089V29.7911C141.089 30.552 140.992 31.2244 140.797 31.8083C140.603 32.3746 140.284 32.9673 139.842 33.5867C139.399 34.1883 138.709 35.0376 137.772 36.1347C136.692 37.3203 135.834 38.3466 135.197 39.2136C134.578 40.063 134.047 41.045 133.604 42.1598C133.18 43.2569 132.905 44.522 132.782 45.9553H124.607C124.73 43.8673 125.412 41.9386 126.65 40.1691C127.907 38.382 129.57 36.5594 131.64 34.7014C131.782 34.5599 131.923 34.4183 132.065 34.2768C132.224 34.1352 132.375 33.9936 132.516 33.8521C132.888 33.4982 133.224 33.1885 133.525 32.9231C133.826 32.64 134.064 32.4188 134.241 32.2596V32.1268H120.254V27.3758ZM161.775 35.7897C162.819 36.0374 163.633 36.5152 164.216 37.2229C164.818 37.9307 165.119 38.9836 165.119 40.3815C165.119 41.6201 164.898 42.6464 164.455 43.4604C164.013 44.2743 163.296 44.8936 162.305 45.3183C161.332 45.743 160.049 45.9553 158.457 45.9553H143.062V27.0042H157.953C160.217 27.0042 161.863 27.4377 162.889 28.3048C163.916 29.1541 164.429 30.3574 164.429 31.9145C164.429 32.9231 164.199 33.7371 163.739 34.3564C163.279 34.958 162.624 35.3827 161.775 35.6304V35.7897ZM156.387 41.6555C157.112 41.6555 157.634 41.5228 157.953 41.2574C158.271 40.9742 158.43 40.5319 158.43 39.9302C158.43 39.3286 158.271 38.8863 157.953 38.6031C157.634 38.32 157.112 38.1785 156.387 38.1785H149.167V41.6555H156.387ZM156.015 34.4095C156.617 34.4095 157.068 34.2856 157.369 34.0379C157.669 33.7902 157.82 33.4009 157.82 32.87C157.82 32.3392 157.669 31.9499 157.369 31.7022C157.085 31.4544 156.634 31.3306 156.015 31.3306H149.167V34.4095H156.015ZM186.212 27.0042V31.8349H179.045V45.9553H172.941V31.8349H165.748V27.0042H186.212ZM203.631 34.3829C203.578 33.5336 203.162 32.8081 202.383 32.2065C201.605 31.6048 200.446 31.304 198.906 31.304C197.721 31.304 196.721 31.5164 195.907 31.941C195.093 32.348 194.483 32.9408 194.076 33.7194C193.669 34.4803 193.465 35.4004 193.465 36.4798C193.465 37.5591 193.669 38.4881 194.076 39.2667C194.483 40.0276 195.093 40.6203 195.907 41.045C196.721 41.452 197.721 41.6555 198.906 41.6555C200.499 41.6555 201.658 41.3458 202.383 40.7265C203.109 40.1072 203.507 39.249 203.578 38.1519H210.877C210.841 39.9568 210.337 41.4962 209.364 42.7703C208.391 44.0266 207.019 44.9821 205.25 45.6368C203.48 46.2738 201.366 46.5923 198.906 46.5923C196.411 46.5923 194.253 46.2296 192.43 45.5041C190.625 44.7609 189.227 43.6373 188.236 42.1332C187.245 40.6115 186.75 38.727 186.75 36.4798C186.75 34.2325 187.245 32.3569 188.236 30.8528C189.227 29.3311 190.625 28.2074 192.43 27.482C194.253 26.7388 196.411 26.3672 198.906 26.3672C201.348 26.3672 203.454 26.6857 205.223 27.3227C206.993 27.942 208.355 28.8533 209.311 30.0566C210.284 31.2598 210.788 32.7019 210.824 34.3829H203.631ZM213.073 45.9553V40.3815H219.602V45.9553H213.073ZM228.508 45.9553H222.404V27.0042H228.508V45.9553ZM243.185 26.3672C245.769 26.3672 247.989 26.7388 249.847 27.482C251.705 28.2074 253.13 29.3222 254.121 30.8263C255.129 32.3303 255.634 34.2148 255.634 36.4798C255.634 38.7447 255.129 40.6292 254.121 42.1332C253.13 43.6373 251.705 44.7609 249.847 45.5041C247.989 46.2296 245.769 46.5923 243.185 46.5923C240.584 46.5923 238.355 46.2296 236.497 45.5041C234.639 44.7609 233.205 43.6373 232.197 42.1332C231.206 40.6292 230.71 38.7447 230.71 36.4798C230.71 34.2148 231.206 32.3303 232.197 30.8263C233.205 29.3222 234.639 28.2074 236.497 27.482C238.355 26.7388 240.584 26.3672 243.185 26.3672ZM243.185 41.6555C245.096 41.6555 246.53 41.2043 247.485 40.3018C248.458 39.3994 248.945 38.1254 248.945 36.4798C248.945 34.8341 248.458 33.5601 247.485 32.6577C246.53 31.7553 245.096 31.304 243.185 31.304C241.257 31.304 239.814 31.7553 238.859 32.6577C237.903 33.5601 237.426 34.8341 237.426 36.4798C237.426 38.1254 237.903 39.3994 238.859 40.3018C239.814 41.2043 241.257 41.6555 243.185 41.6555Z" fill="white"/>
<path d="M151.945 24.8872H148.698V27.453H151.945V24.8872Z" fill="white"/>
<path d="M157.072 24.8867H153.825V27.4525H157.072V24.8867Z" fill="white"/>
<path d="M151.945 46.0752H148.698V48.641H151.945V46.0752Z" fill="white"/>
<path d="M157.072 46.0752H153.825V48.641H157.072V46.0752Z" fill="white"/>
<path d="M136.064 10.1814L137.373 8.8723L138.687 10.1814L139.449 9.41974L137.373 7.34424L135.303 9.41974L136.064 10.1814Z" fill="white"/>
<path d="M134.768 9.96669L134.005 10.7302L134.768 11.4938L135.532 10.7302L134.768 9.96669Z" fill="white"/>
<path d="M136.064 11.2578L137.373 12.5717L138.687 11.2578L139.449 12.0195L137.373 14.095L135.303 12.0242L135.298 12.0195L136.064 11.2578Z" fill="white"/>
<path d="M139.984 9.95839L139.22 10.7219L139.984 11.4855L140.748 10.7219L139.984 9.95839Z" fill="white"/>
<path d="M138.149 10.7198L137.373 9.94385L136.802 10.5151L136.736 10.5817L136.602 10.715L137.373 11.4862L138.149 10.7103" fill="white"/>
<path d="M125.787 9.34833C125.677 8.68189 125.101 8.39627 124.325 8.32963V7.34424H123.726V8.32963C123.568 8.32963 123.407 8.3201 123.245 8.32963V7.35376H122.645V8.33915C122.516 8.33915 121.436 8.33915 121.436 8.33915V8.98179C121.436 8.98179 121.878 8.97227 121.874 8.98179C122.117 8.98179 122.197 9.1246 122.221 9.24361V11.9475C122.221 12.0236 122.169 12.1426 122.002 12.1474C122.012 12.1569 121.564 12.1474 121.564 12.1474L121.445 12.8662C121.445 12.8662 122.516 12.8662 122.659 12.8662V13.8659H123.259V12.8615C123.421 12.8615 123.583 12.8662 123.74 12.8615V13.8611H124.34V12.8662C125.258 12.8757 126.01 12.4854 126.101 11.619C126.149 11.0954 125.706 10.5384 125.258 10.3766C125.606 10.2004 125.839 9.87197 125.787 9.3531V9.34833ZM124.949 11.4857C124.849 12.3426 123.673 12.1474 123.264 12.1522L123.249 10.8288C123.659 10.8288 124.944 10.7098 124.944 11.4857H124.949ZM124.687 9.62443C124.616 10.3908 123.611 10.2242 123.273 10.2242L123.259 9.02463C123.597 9.02463 124.62 8.88182 124.687 9.62443Z" fill="#DDE404"/>
<path d="M110.163 11.5575L112.653 10.4674L110.163 7.40649L107.674 10.4674L110.163 11.5575Z" fill="white"/>
<path d="M110.163 12.5857L107.674 11.4956L110.163 14.0947L112.653 11.4956L110.163 12.5857Z" fill="white"/>
<path d="M95.2448 10.1814L96.5587 8.8723L97.8677 10.1814L98.6294 9.41974L96.5587 7.34424L94.4832 9.41974L95.2448 10.1814Z" fill="#DDE404"/>
<path d="M93.9501 9.96034L93.1865 10.7239L93.9501 11.4874L94.7136 10.7239L93.9501 9.96034Z" fill="#DDE404"/>
<path d="M95.2448 11.2578L96.5587 12.5717L97.8677 11.2578L98.6294 12.0195L96.5587 14.095L94.4832 12.0242V12.0195L95.2448 11.2578Z" fill="#DDE404"/>
<path d="M99.1708 9.95693L98.4072 10.7205L99.1708 11.484L99.9343 10.7205L99.1708 9.95693Z" fill="#DDE404"/>
<path d="M97.3298 10.7198L96.5539 9.94385L95.9826 10.5151L95.916 10.5817L95.7827 10.715L96.5539 11.4862L97.3298 10.7103" fill="#DDE404"/>
<path d="M84.9718 9.34833C84.8623 8.68189 84.2863 8.39627 83.5104 8.32963V7.34424H82.9106V8.32963C82.7535 8.32963 82.5916 8.3201 82.4298 8.32963V7.35376H81.83V8.33915C81.7014 8.33915 80.6208 8.33915 80.6208 8.33915V8.98179C80.6208 8.98179 81.0636 8.97227 81.0588 8.98179C81.3016 8.98179 81.3825 9.1246 81.4063 9.24361V11.9475C81.4063 12.0236 81.3539 12.1426 81.1873 12.1474C81.1969 12.1569 80.7494 12.1474 80.7494 12.1474L80.6304 12.8662C80.6304 12.8662 81.7014 12.8662 81.8442 12.8662V13.8659H82.4441V12.8615C82.6059 12.8615 82.7678 12.8662 82.9248 12.8615V13.8611H83.5247V12.8662C84.4434 12.8757 85.1955 12.4854 85.286 11.619C85.3336 11.0954 84.8909 10.5384 84.4434 10.3766C84.7909 10.2004 85.0242 9.87197 84.9718 9.3531V9.34833ZM84.134 11.4857C84.034 12.3426 82.8582 12.1474 82.4488 12.1522L82.4345 10.8288C82.8439 10.8288 84.1292 10.7098 84.1292 11.4857H84.134ZM83.8722 9.62443C83.8007 10.3908 82.7963 10.2242 82.4583 10.2242L82.4441 9.02463C82.782 9.02463 83.8055 8.88182 83.8722 9.62443Z" fill="white"/>
<path d="M69.3437 11.5575L71.8333 10.4674L69.3437 7.40649L66.854 10.4674L69.3437 11.5575Z" fill="#DDE404"/>
<path d="M69.3437 12.5857L66.854 11.4956L69.3437 14.0947L71.8381 11.4956L69.3437 12.5857Z" fill="#DDE404"/>
<path d="M176.879 10.1814L178.193 8.8723L179.502 10.1814L180.264 9.41974L178.193 7.34424L176.118 9.41974L176.879 10.1814Z" fill="#DDE404"/>
<path d="M175.59 9.964L174.826 10.7275L175.59 11.4911L176.353 10.7275L175.59 9.964Z" fill="#DDE404"/>
<path d="M176.879 11.2578L178.193 12.5717L179.502 11.2578L180.264 12.0195L178.193 14.095L176.118 12.0242V12.0195L176.879 11.2578Z" fill="#DDE404"/>
<path d="M180.806 9.95643L180.042 10.72L180.806 11.4835L181.57 10.72L180.806 9.95643Z" fill="#DDE404"/>
<path d="M178.964 10.7198L178.188 9.94385L177.617 10.5151L177.551 10.5817L177.417 10.715L178.188 11.4862L178.964 10.7103" fill="#DDE404"/>
<path d="M166.602 9.34833C166.492 8.68189 165.916 8.39627 165.14 8.32963V7.34424H164.541V8.32963C164.384 8.32963 164.222 8.3201 164.06 8.32963V7.35376H163.46V8.33915C163.332 8.33915 162.251 8.33915 162.251 8.33915V8.98179C162.251 8.98179 162.694 8.97227 162.689 8.98179C162.932 8.98179 163.013 9.1246 163.036 9.24361V11.9475C163.036 12.0236 162.984 12.1426 162.817 12.1474C162.827 12.1569 162.38 12.1474 162.38 12.1474L162.26 12.8662C162.26 12.8662 163.332 12.8662 163.474 12.8662V13.8659H164.074V12.8615C164.236 12.8615 164.398 12.8662 164.555 12.8615V13.8611H165.155V12.8662C166.074 12.8757 166.826 12.4854 166.916 11.619C166.964 11.0954 166.521 10.5384 166.074 10.3766C166.421 10.2004 166.654 9.87197 166.602 9.3531V9.34833ZM165.769 11.4857C165.669 12.3426 164.493 12.1474 164.084 12.1522L164.069 10.8288C164.479 10.8288 165.764 10.7098 165.764 11.4857H165.769ZM165.507 9.62443C165.436 10.3908 164.431 10.2242 164.093 10.2242L164.079 9.02463C164.417 9.02463 165.44 8.88182 165.507 9.62443Z" fill="white"/>
<path d="M150.978 11.5575L153.468 10.4674L150.978 7.40649L148.489 10.4674L150.978 11.5575Z" fill="#DDE404"/>
<path d="M150.978 12.5857L148.489 11.4956L150.978 14.0947L153.468 11.4956L150.978 12.5857Z" fill="#DDE404"/>
<path d="M217.699 10.1814L219.008 8.8723L220.317 10.1814L221.084 9.41974L219.008 7.34424L216.933 9.41974L217.699 10.1814Z" fill="white"/>
<path d="M216.409 9.97036L215.645 10.7339L216.409 11.4974L217.172 10.7339L216.409 9.97036Z" fill="white"/>
<path d="M217.699 11.2578L219.008 12.5717L220.317 11.2578L221.084 12.0195L219.008 14.095L216.933 12.0242V12.0195L217.699 11.2578Z" fill="white"/>
<path d="M221.62 9.95742L220.856 10.7209L221.62 11.4845L222.383 10.721L221.62 9.95742Z" fill="white"/>
<path d="M219.779 10.7198L219.003 9.94385L218.432 10.5151L218.365 10.5817L218.232 10.715L219.003 11.4862L219.779 10.7103" fill="white"/>
<path d="M207.422 9.34833C207.312 8.68189 206.736 8.39627 205.96 8.32963V7.34424H205.361V8.32963C205.203 8.32963 205.042 8.3201 204.88 8.32963V7.35376H204.28V8.33915C204.151 8.33915 203.071 8.33915 203.071 8.33915V8.98179C203.071 8.98179 203.514 8.97227 203.509 8.98179C203.752 8.98179 203.832 9.1246 203.856 9.24361V11.9475C203.856 12.0236 203.804 12.1426 203.637 12.1474C203.647 12.1569 203.199 12.1474 203.199 12.1474L203.08 12.8662C203.08 12.8662 204.151 12.8662 204.294 12.8662V13.8659H204.894V12.8615C205.056 12.8615 205.218 12.8662 205.375 12.8615V13.8611H205.975V12.8662C206.893 12.8757 207.645 12.4854 207.736 11.619C207.784 11.0954 207.341 10.5384 206.893 10.3766C207.241 10.2004 207.474 9.87197 207.422 9.3531V9.34833ZM206.584 11.4857C206.484 12.3426 205.308 12.1474 204.899 12.1522L204.884 10.8288C205.294 10.8288 206.579 10.7098 206.579 11.4857H206.584ZM206.322 9.62443C206.251 10.3908 205.246 10.2242 204.908 10.2242L204.894 9.02463C205.232 9.02463 206.255 8.88182 206.322 9.62443Z" fill="#DDE404"/>
<path d="M191.793 11.5575L194.283 10.4674L191.793 7.40649L189.309 10.4674L191.793 11.5575Z" fill="white"/>
<path d="M191.794 12.5857L189.309 11.4956L191.794 14.0947L194.288 11.4956L191.794 12.5857Z" fill="white"/>
<path d="M258.514 10.1814L259.823 8.8723L261.137 10.1814L261.899 9.41974L259.823 7.34424L257.753 9.41974L258.514 10.1814Z" fill="#DDE404"/>
<path d="M257.227 9.97157L256.464 10.7351L257.227 11.4986L257.991 10.7351L257.227 9.97157Z" fill="#DDE404"/>
<path d="M258.514 11.2578L259.823 12.5717L261.137 11.2578L261.899 12.0195L259.823 14.095L257.753 12.0242V12.0195L258.514 11.2578Z" fill="#DDE404"/>
<path d="M262.442 9.9557L261.678 10.7192L262.442 11.4828L263.205 10.7192L262.442 9.9557Z" fill="#DDE404"/>
<path d="M260.599 10.7198L259.823 9.94385L259.252 10.5151L259.186 10.5817L259.052 10.715L259.823 11.4862L260.599 10.7103" fill="#DDE404"/>
<path d="M248.237 9.34833C248.127 8.68189 247.551 8.39627 246.775 8.32963V7.34424H246.175V8.32963C246.018 8.32963 245.857 8.3201 245.695 8.32963V7.35376H245.095V8.33915C244.966 8.33915 243.886 8.33915 243.886 8.33915V8.98179C243.886 8.98179 244.328 8.97227 244.324 8.98179C244.566 8.98179 244.647 9.1246 244.671 9.24361V11.9475C244.671 12.0236 244.619 12.1426 244.452 12.1474C244.462 12.1569 244.014 12.1474 244.014 12.1474L243.895 12.8662C243.895 12.8662 244.966 12.8662 245.109 12.8662V13.8659H245.709V12.8615C245.871 12.8615 246.033 12.8662 246.19 12.8615V13.8611H246.79V12.8662C247.708 12.8757 248.46 12.4854 248.551 11.619C248.598 11.0954 248.156 10.5384 247.708 10.3766C248.056 10.2004 248.289 9.87197 248.237 9.3531V9.34833ZM247.399 11.4857C247.299 12.3426 246.123 12.1474 245.714 12.1522L245.699 10.8288C246.109 10.8288 247.394 10.7098 247.394 11.4857H247.399ZM247.142 9.62443C247.07 10.3908 246.066 10.2242 245.728 10.2242L245.714 9.02463C246.052 9.02463 247.075 8.88182 247.142 9.62443Z" fill="white"/>
<path d="M232.613 11.5575L235.103 10.4674L232.613 7.40649L230.124 10.4674L232.613 11.5575Z" fill="#DDE404"/>
<path d="M232.613 12.5857L230.123 11.4956L232.613 14.0947L235.103 11.4956L232.613 12.5857Z" fill="#DDE404"/>
<path d="M136.065 62.5312L137.374 61.2174L138.688 62.5312L139.449 61.7648L137.374 59.6941L135.303 61.7648L136.065 62.5265" fill="white"/>
<path d="M134.765 62.3126L134.002 63.0762L134.765 63.8397L135.529 63.0762L134.765 62.3126Z" fill="white"/>
<path d="M136.065 63.6072L137.374 64.9163L138.687 63.6072L139.449 64.3688L137.374 66.4396L135.303 64.3688H135.298L136.065 63.6072Z" fill="white"/>
<path d="M139.986 62.3046L139.222 63.0681L139.986 63.8316L140.749 63.0681L139.986 62.3046Z" fill="white"/>
<path d="M138.15 63.0689L137.374 62.293L136.802 62.8642L136.736 62.9309L136.603 63.0641L137.374 63.8353L138.15 63.0594" fill="white"/>
<path d="M125.787 61.6982C125.677 61.0317 125.101 60.7461 124.325 60.6795V59.6941H123.726V60.6795C123.568 60.6795 123.407 60.67 123.245 60.6795V59.7036H122.645V60.689C122.516 60.689 121.436 60.689 121.436 60.689V61.3316C121.436 61.3316 121.878 61.3221 121.874 61.3316C122.117 61.3316 122.197 61.4745 122.221 61.5935V64.2973C122.221 64.3735 122.169 64.4925 122.002 64.4973C122.012 64.5068 121.564 64.4973 121.564 64.4973L121.445 65.2161C121.445 65.2161 122.516 65.2161 122.659 65.2161V66.2157H123.259V65.2113C123.421 65.2113 123.583 65.2161 123.74 65.2113V66.211H124.34V65.2161C125.258 65.2256 126.01 64.8352 126.101 63.9689C126.149 63.4452 125.706 62.8883 125.258 62.7264C125.606 62.5503 125.839 62.2218 125.787 61.7029V61.6982ZM124.949 63.8356C124.849 64.6924 123.673 64.4973 123.264 64.502L123.249 63.1786C123.659 63.1786 124.944 63.0596 124.944 63.8356H124.949ZM124.687 61.9695C124.616 62.7359 123.611 62.5693 123.273 62.5693L123.259 61.3697C123.597 61.3697 124.62 61.2269 124.687 61.9695Z" fill="#DDE404"/>
<path d="M110.163 63.9072L112.653 62.8124L110.163 59.7515L107.674 62.8124L110.163 63.9072Z" fill="white"/>
<path d="M110.163 64.9307L107.674 63.8406L110.163 66.4397L112.653 63.8406L110.163 64.9307Z" fill="white"/>
<path d="M95.2446 62.5312L96.5584 61.2174L97.8675 62.5312L98.6292 61.7648L96.5584 59.6941L94.4829 61.7648L95.2446 62.5265" fill="#DDE404"/>
<path d="M93.9464 62.3114L93.1829 63.075L93.9464 63.8385L94.7099 63.075L93.9464 62.3114Z" fill="#DDE404"/>
<path d="M95.2446 63.6072L96.5584 64.9163L97.8675 63.6072L98.6292 64.3688L96.5584 66.4396L94.4829 64.3688L95.2446 63.6072Z" fill="#DDE404"/>
<path d="M99.1673 62.3034L98.4038 63.0669L99.1673 63.8304L99.9309 63.0669L99.1673 62.3034Z" fill="#DDE404"/>
<path d="M97.3296 63.0689L96.5536 62.293L95.9824 62.8642L95.9158 62.9309L95.7825 63.0641L96.5536 63.8353L97.3296 63.0594" fill="#DDE404"/>
<path d="M84.9718 61.6982C84.8623 61.0317 84.2863 60.7461 83.5104 60.6795V59.6941H82.9106V60.6795C82.7535 60.6795 82.5916 60.67 82.4298 60.6795V59.7036H81.83V60.689C81.7014 60.689 80.6208 60.689 80.6208 60.689V61.3316C80.6208 61.3316 81.0636 61.3221 81.0588 61.3316C81.3016 61.3316 81.3825 61.4745 81.4063 61.5935V64.2973C81.4063 64.3735 81.3539 64.4925 81.1873 64.4973C81.1969 64.5068 80.7494 64.4973 80.7494 64.4973L80.6304 65.2161C80.6304 65.2161 81.7014 65.2161 81.8442 65.2161V66.2157H82.4441V65.2113C82.6059 65.2113 82.7678 65.2161 82.9248 65.2113V66.211H83.5247V65.2161C84.4434 65.2256 85.1955 64.8352 85.286 63.9689C85.3336 63.4452 84.8909 62.8883 84.4434 62.7264C84.7909 62.5503 85.0242 62.2218 84.9718 61.7029V61.6982ZM84.134 63.8356C84.034 64.6924 82.8582 64.4973 82.4488 64.502L82.4345 63.1786C82.8439 63.1786 84.1292 63.0596 84.1292 63.8356H84.134ZM83.8722 61.9695C83.8007 62.7359 82.7963 62.5693 82.4583 62.5693L82.4441 61.3697C82.782 61.3697 83.8055 61.2269 83.8722 61.9695Z" fill="white"/>
<path d="M69.3437 63.9075L71.8333 62.8126L69.3437 59.7517L66.854 62.8126L69.3437 63.9075Z" fill="#DDE404"/>
<path d="M69.3434 64.9307L66.8538 63.8406L69.3434 66.4397L71.8378 63.8406L69.3434 64.9307Z" fill="#DDE404"/>
<path d="M176.879 62.5312L178.193 61.2174L179.502 62.5312L180.264 61.7648L178.193 59.6941L176.118 61.7648L176.879 62.5265" fill="#DDE404"/>
<path d="M175.587 62.3153L174.823 63.0789L175.587 63.8424L176.35 63.0789L175.587 62.3153Z" fill="#DDE404"/>
<path d="M176.879 63.6072L178.193 64.9163L179.502 63.6072L180.264 64.3688L178.193 66.4396L176.118 64.3688L176.879 63.6072Z" fill="#DDE404"/>
<path d="M180.803 62.3026L180.039 63.0662L180.803 63.8297L181.566 63.0662L180.803 62.3026Z" fill="#DDE404"/>
<path d="M178.964 63.0689L178.188 62.293L177.617 62.8642L177.551 62.9309L177.417 63.0641L178.188 63.8353L178.964 63.0594" fill="#DDE404"/>
<path d="M166.602 61.6982C166.492 61.0317 165.916 60.7461 165.14 60.6795V59.6941H164.541V60.6795C164.384 60.6795 164.222 60.67 164.06 60.6795V59.7036H163.46V60.689C163.332 60.689 162.251 60.689 162.251 60.689V61.3316C162.251 61.3316 162.694 61.3221 162.689 61.3316C162.932 61.3316 163.013 61.4745 163.036 61.5935V64.2973C163.036 64.3735 162.984 64.4925 162.817 64.4973C162.827 64.5068 162.38 64.4973 162.38 64.4973L162.26 65.2161C162.26 65.2161 163.332 65.2161 163.474 65.2161V66.2157H164.074V65.2113C164.236 65.2113 164.398 65.2161 164.555 65.2113V66.211H165.155V65.2161C166.074 65.2256 166.826 64.8352 166.916 63.9689C166.964 63.4452 166.521 62.8883 166.074 62.7264C166.421 62.5503 166.654 62.2218 166.602 61.7029V61.6982ZM165.769 63.8356C165.669 64.6924 164.493 64.4973 164.084 64.502L164.069 63.1786C164.479 63.1786 165.764 63.0596 165.764 63.8356H165.769ZM165.507 61.9695C165.436 62.7359 164.431 62.5693 164.093 62.5693L164.079 61.3697C164.417 61.3697 165.44 61.2269 165.507 61.9695Z" fill="white"/>
<path d="M150.978 63.9072L153.468 62.8124L150.978 59.7515L148.489 62.8124L150.978 63.9072Z" fill="#DDE404"/>
<path d="M150.978 64.9307L148.489 63.8406L150.978 66.4397L153.468 63.8406L150.978 64.9307Z" fill="#DDE404"/>
<path d="M217.699 62.5312L219.008 61.2174L220.317 62.5312L221.084 61.7648L219.008 59.6941L216.933 61.7648L217.699 62.5265" fill="white"/>
<path d="M216.405 62.3168L215.642 63.0803L216.405 63.8439L217.169 63.0803L216.405 62.3168Z" fill="white"/>
<path d="M217.699 63.6072L219.008 64.9163L220.317 63.6072L221.084 64.3688L219.008 66.4396L216.933 64.3688L217.699 63.6072Z" fill="white"/>
<path d="M221.617 62.3036L220.853 63.0671L221.617 63.8307L222.38 63.0671L221.617 62.3036Z" fill="white"/>
<path d="M219.78 63.0689L219.004 62.293L218.432 62.8642L218.366 62.9309L218.232 63.0641L219.004 63.8353L219.78 63.0594" fill="white"/>
<path d="M207.422 61.6982C207.312 61.0317 206.736 60.7461 205.96 60.6795V59.6941H205.361V60.6795C205.203 60.6795 205.042 60.67 204.88 60.6795V59.7036H204.28V60.689C204.151 60.689 203.071 60.689 203.071 60.689V61.3316C203.071 61.3316 203.514 61.3221 203.509 61.3316C203.752 61.3316 203.832 61.4745 203.856 61.5935V64.2973C203.856 64.3735 203.804 64.4925 203.637 64.4973C203.647 64.5068 203.199 64.4973 203.199 64.4973L203.08 65.2161C203.08 65.2161 204.151 65.2161 204.294 65.2161V66.2157H204.894V65.2113C205.056 65.2113 205.218 65.2161 205.375 65.2113V66.211H205.975V65.2161C206.893 65.2256 207.645 64.8352 207.736 63.9689C207.784 63.4452 207.341 62.8883 206.893 62.7264C207.241 62.5503 207.474 62.2218 207.422 61.7029V61.6982ZM206.584 63.8356C206.484 64.6924 205.308 64.4973 204.899 64.502L204.884 63.1786C205.294 63.1786 206.579 63.0596 206.579 63.8356H206.584ZM206.322 61.9695C206.251 62.7359 205.246 62.5693 204.908 62.5693L204.894 61.3697C205.232 61.3697 206.255 61.2269 206.322 61.9695Z" fill="#DDE404"/>
<path d="M191.793 63.9072L194.283 62.8124L191.793 59.7515L189.309 62.8124L191.793 63.9072Z" fill="white"/>
<path d="M191.794 64.9307L189.309 63.8406L191.794 66.4397L194.288 63.8406L191.794 64.9307Z" fill="white"/>
<path d="M258.514 62.5312L259.823 61.2174L261.137 62.5312L261.899 61.7648L259.823 59.6941L257.753 61.7648L258.514 62.5265" fill="#DDE404"/>
<path d="M257.219 62.3178L256.456 63.0813L257.219 63.8448L257.983 63.0813L257.219 62.3178Z" fill="#DDE404"/>
<path d="M258.514 63.6072L259.823 64.9163L261.137 63.6072L261.899 64.3688L259.823 66.4396L257.753 64.3688L258.514 63.6072Z" fill="#DDE404"/>
<path d="M262.439 62.3019L261.675 63.0654L262.439 63.829L263.202 63.0654L262.439 62.3019Z" fill="#DDE404"/>
<path d="M260.599 63.0689L259.823 62.293L259.252 62.8642L259.186 62.9309L259.052 63.0641L259.823 63.8353L260.599 63.0594" fill="#DDE404"/>
<path d="M248.237 61.6982C248.127 61.0317 247.551 60.7461 246.775 60.6795V59.6941H246.175V60.6795C246.018 60.6795 245.857 60.67 245.695 60.6795V59.7036H245.095V60.689C244.966 60.689 243.886 60.689 243.886 60.689V61.3316C243.886 61.3316 244.328 61.3221 244.324 61.3316C244.566 61.3316 244.647 61.4745 244.671 61.5935V64.2973C244.671 64.3735 244.619 64.4925 244.452 64.4973C244.462 64.5068 244.014 64.4973 244.014 64.4973L243.895 65.2161C243.895 65.2161 244.966 65.2161 245.109 65.2161V66.2157H245.709V65.2113C245.871 65.2113 246.033 65.2161 246.19 65.2113V66.211H246.79V65.2161C247.708 65.2256 248.46 64.8352 248.551 63.9689C248.598 63.4452 248.156 62.8883 247.708 62.7264C248.056 62.5503 248.289 62.2218 248.237 61.7029V61.6982ZM247.399 63.8356C247.299 64.6924 246.123 64.4973 245.714 64.502L245.699 63.1786C246.109 63.1786 247.394 63.0596 247.394 63.8356H247.399ZM247.142 61.9695C247.07 62.7359 246.066 62.5693 245.728 62.5693L245.714 61.3697C246.052 61.3697 247.075 61.2269 247.142 61.9695Z" fill="white"/>
<path d="M232.613 63.9072L235.103 62.8124L232.613 59.7515L230.124 62.8124L232.613 63.9072Z" fill="#DDE404"/>
<path d="M232.613 64.9307L230.123 63.8406L232.613 66.4397L235.103 63.8406L232.613 64.9307Z" fill="#DDE404"/>
<path d="M77.1602 19.5405H255.439" stroke="#DDE404" stroke-width="1.00919" stroke-miterlimit="10"/>
<path d="M77.1602 54.6572H255.439" stroke="#DDE404" stroke-width="1.00919" stroke-miterlimit="10"/>
</g>
<defs>
<clipPath id="clip0_126_4461">
<rect width="330" height="72.5473" fill="white" transform="translate(0 0.913818)"/>
</clipPath>
</defs>
</svg>
