<svg width="521" height="115" viewBox="0 0 521 115" fill="none" xmlns="http://www.w3.org/2000/svg">
<g clip-path="url(#clip0_105_3170)">
<path d="M71.1574 74.5989C69.769 74.5989 68.4632 74.0585 67.4876 73.0829C66.7596 72.3549 66.2718 71.4393 66.0842 70.4487C65.874 69.4355 65.3787 68.5199 64.6507 67.7919L61.6112 64.7525C60.7632 65.0527 59.8701 65.2028 58.962 65.2028C58.0539 65.2028 57.1308 65.0452 56.2678 64.7375L53.2133 67.7919C52.4928 68.5124 51.9975 69.428 51.7873 70.4337C51.7798 70.4787 51.7723 70.5312 51.7573 70.5763V70.6138L51.7348 70.6963C51.5021 71.6119 51.0518 72.415 50.3839 73.0829C49.4083 74.0585 48.1025 74.5989 46.7141 74.5989C45.3257 74.5989 44.0273 74.0585 43.0442 73.0829C42.061 72.0997 41.5206 70.7939 41.5282 69.4055C41.5282 68.0171 42.0685 66.7187 43.0442 65.7431C43.7646 65.0151 44.6727 64.5348 45.6784 64.3397C46.6915 64.1296 47.6071 63.6342 48.3351 62.9138L51.4196 59.8293C50.8342 58.1256 50.8342 56.2869 51.4346 54.5833L48.3351 51.4838C47.6221 50.7709 46.714 50.2755 45.7084 50.0579C45.6408 50.0429 45.5808 50.0354 45.5432 50.0204H45.5132L45.4382 49.9979C44.5226 49.7727 43.7196 49.3149 43.0442 48.647C41.0178 46.6206 41.0178 43.326 43.0442 41.3072C44.0273 40.324 45.3257 39.7912 46.7141 39.7912C48.1025 39.7912 49.4083 40.3316 50.3839 41.3072C51.1119 42.0352 51.5922 42.9433 51.7873 43.9339C51.9975 44.9471 52.4928 45.8702 53.2208 46.5906L56.3278 49.6977C57.1759 49.405 58.0689 49.2474 58.9695 49.2474C59.8701 49.2474 60.7332 49.3975 61.5662 49.6826L64.6507 46.5981C65.3712 45.8777 65.859 44.9696 66.0767 43.9639C66.0842 43.9039 66.0992 43.8513 66.1067 43.8213V43.7763L66.1367 43.6937C66.3618 42.7856 66.8197 41.9826 67.4876 41.3072C68.4707 40.324 69.7765 39.7837 71.1574 39.7837C72.5383 39.7837 73.8517 40.324 74.8273 41.2997C76.8537 43.326 76.8537 46.6206 74.8273 48.6395C74.0994 49.3674 73.1913 49.8478 72.1931 50.0429C71.18 50.253 70.2644 50.7483 69.5364 51.4763L66.4819 54.5308C67.1048 56.2569 67.1123 58.1407 66.4969 59.8743L69.5289 62.9138C70.2494 63.6267 71.1575 64.1221 72.1556 64.3397C72.2232 64.3547 72.2832 64.3622 72.3207 64.3772H72.3507L72.4258 64.3997C73.3414 64.6249 74.1444 65.0827 74.8123 65.7506C75.788 66.7263 76.3283 68.0321 76.3283 69.413C76.3283 70.8014 75.788 72.1073 74.8049 73.0904C73.8292 74.066 72.5234 74.6064 71.135 74.6064L71.1574 74.5989Z" stroke="#DDE404" stroke-width="0.345225" stroke-miterlimit="10"/>
<path d="M73.6112 66.9587C73.1534 66.5009 72.6131 66.2082 72.0277 66.0581C71.9677 66.0506 71.9226 66.0281 71.8626 66.0281C70.5267 65.7504 69.2959 65.0975 68.3278 64.1218L64.4553 60.2493C65.506 58.3506 65.4985 56.0391 64.4328 54.1478L68.3278 50.2528C69.3034 49.2771 70.5267 48.6242 71.8626 48.3465C72.508 48.2265 73.1159 47.9113 73.6112 47.4159C74.9546 46.0726 74.9696 43.8736 73.6112 42.5152C72.2529 41.1569 70.0539 41.1644 68.7106 42.5152C68.2528 42.973 67.9601 43.5134 67.81 44.0988C67.8025 44.1588 67.7874 44.2038 67.7799 44.2639C67.5022 45.6073 66.8493 46.8306 65.8737 47.7987L61.9562 51.7162C60.0799 50.7031 57.8135 50.7106 55.9372 51.7388L51.9972 47.7987C51.0215 46.8306 50.3686 45.5998 50.0909 44.2639C49.9709 43.6185 49.6556 43.0181 49.1603 42.5152C47.8094 41.1644 45.618 41.1569 44.2596 42.5152C42.9012 43.8736 42.9087 46.0651 44.2596 47.4159C44.7174 47.8737 45.2578 48.1664 45.8431 48.309C45.9032 48.3165 45.9482 48.339 46.0083 48.339C47.3517 48.6167 48.5749 49.2696 49.5431 50.2453L53.4831 54.1853C52.4474 56.0541 52.4475 58.3205 53.4606 60.2043L49.5431 64.1218C48.5749 65.09 47.3442 65.7504 46.0083 66.0206C45.3629 66.1406 44.755 66.4558 44.2596 66.9512C42.9163 68.2945 42.9012 70.4935 44.2596 71.8519C45.618 73.2102 47.8169 73.1952 49.1603 71.8519C49.6181 71.3941 49.9108 70.8537 50.0609 70.2683C50.0684 70.2083 50.0834 70.1633 50.0984 70.1032C50.3761 68.7673 51.029 67.5365 51.9972 66.5684L55.8922 62.6734C57.7834 63.7391 60.0949 63.7466 61.9937 62.6959L65.8662 66.5684C66.8418 67.544 67.4948 68.7673 67.7725 70.1032C67.8925 70.7486 68.2077 71.349 68.7031 71.8519C70.0539 73.2027 72.2453 73.2102 73.6037 71.8519C74.9621 70.4935 74.9546 68.2945 73.6037 66.9512L73.6112 66.9587Z" fill="white"/>
<path d="M17.2945 74.5087C15.7785 70.8838 14.7503 67.0413 14.2325 63.1013L14.0073 61.3901L26.7731 59.7166L26.9983 61.4277C27.3735 64.2495 28.109 66.9888 29.1897 69.5705L29.8576 71.169L17.9549 76.1072L17.2945 74.5162V74.5087Z" stroke="#DDE404" stroke-width="0.345225" stroke-miterlimit="10"/>
<path d="M27.5989 70.2306L18.8858 73.8405C17.4448 70.3882 16.4467 66.7033 15.9438 62.8683L25.2949 61.645C25.6927 64.647 26.4732 67.5289 27.6064 70.2306H27.5989Z" fill="#EF008F"/>
<path d="M31.5315 92.9781C28.402 90.5765 25.5952 87.7697 23.1861 84.6401L22.1279 83.2667L32.3496 75.4316L33.4002 76.7975C35.1189 79.034 37.1302 81.0378 39.3666 82.7564L40.7325 83.8071L32.8974 94.0288L31.524 92.9781H31.5315Z" stroke="#DDE404" stroke-width="0.345225" stroke-miterlimit="10"/>
<path d="M38.3162 84.1298L32.5825 91.6122C29.573 89.3007 26.8713 86.5989 24.5522 83.5894L32.0346 77.8557C33.8508 80.2122 35.9597 82.3211 38.3162 84.1298Z" fill="#DDE404"/>
<path d="M53.0781 101.894C49.138 101.384 45.303 100.356 41.6706 98.8472L40.0796 98.1868L45.0103 86.2915L46.6089 86.9519C49.198 88.0251 51.9373 88.7606 54.7516 89.1284L56.4628 89.3535L54.7892 102.127L53.0781 101.902V101.894Z" stroke="#DDE404" stroke-width="0.345225" stroke-miterlimit="10"/>
<path d="M54.5263 90.8392L53.303 100.19C49.468 99.6875 45.7906 98.6968 42.3384 97.2559L45.9482 88.5427C48.65 89.6685 51.5319 90.4415 54.5263 90.8392Z" fill="#EF008F"/>
<path d="M61.4009 89.3535L63.112 89.1284C65.9263 88.7606 68.6581 88.0326 71.2548 86.9519L72.8533 86.2915L77.7841 98.1868L76.193 98.8472C72.5682 100.356 68.7257 101.384 64.7856 101.894L63.0745 102.119L61.4009 89.346V89.3535Z" stroke="#DDE404" stroke-width="0.345225" stroke-miterlimit="10"/>
<path d="M75.5327 97.2559C72.0804 98.6893 68.403 99.6875 64.568 100.183L63.3447 90.8317C66.3392 90.4415 69.221 89.661 71.9228 88.5427L75.5327 97.2559Z" fill="#DDE404"/>
<path d="M77.1312 83.8147L78.4971 82.764C80.7336 81.0454 82.7449 79.0416 84.471 76.8051L85.5217 75.4392L95.7358 83.2743L94.6777 84.6477C92.2686 87.7773 89.4618 90.5766 86.3247 92.9856L84.9513 94.0363L77.1162 83.8147H77.1312Z" stroke="#DDE404" stroke-width="0.345225" stroke-miterlimit="10"/>
<path d="M93.3192 83.5973C91.0002 86.6067 88.2984 89.301 85.2889 91.62L79.5552 84.1376C81.9117 82.3289 84.0281 80.2201 85.8443 77.8635L93.3192 83.5973Z" fill="#EF008F"/>
<path d="M88.0132 71.169L88.6811 69.5705C89.7618 66.9813 90.4973 64.242 90.8725 61.4277L91.0977 59.7166L103.871 61.3901L103.646 63.1013C103.128 67.0488 102.092 70.8913 100.576 74.5162L99.9159 76.1072L88.0207 71.169H88.0132Z" stroke="#DDE404" stroke-width="0.345225" stroke-miterlimit="10"/>
<path d="M101.935 62.8761C101.424 66.7111 100.426 70.396 98.9851 73.8483L90.272 70.2384C91.4052 67.5367 92.1857 64.6548 92.5835 61.6528L101.935 62.8761Z" fill="#DDE404"/>
<path d="M90.8875 53.045C90.5272 50.2231 89.7917 47.4764 88.7185 44.8872L88.0581 43.2961L99.9533 38.3579L100.614 39.9489C102.122 43.5813 103.143 47.4238 103.661 51.3789L103.878 53.09L91.1051 54.7636L90.8875 53.045Z" stroke="#DDE404" stroke-width="0.345225" stroke-miterlimit="10"/>
<path d="M101.942 51.596L92.5912 52.8193C92.201 49.8099 91.428 46.928 90.3022 44.2187L99.0079 40.6089C100.441 44.0686 101.44 47.7535 101.935 51.596H101.942Z" fill="#EF008F"/>
<path d="M84.5161 37.6297C82.7975 35.3858 80.7861 33.3744 78.5422 31.6483L77.1763 30.5976L85.0114 20.376L86.3848 21.4342C89.5218 23.8507 92.3287 26.6651 94.7377 29.7946L95.7884 31.168L85.5742 39.0031L84.5235 37.6372L84.5161 37.6297Z" stroke="#DDE404" stroke-width="0.345225" stroke-miterlimit="10"/>
<path d="M93.3641 30.8455L85.8892 36.5793C84.073 34.2152 81.9641 32.0989 79.6001 30.2827L85.3338 22.8003C88.3508 25.1193 91.0526 27.8286 93.3641 30.8455Z" fill="#DDE404"/>
<path d="M71.2925 27.4309C68.7033 26.3502 65.9565 25.6147 63.1272 25.247L61.416 25.0219L63.0896 12.2485L64.8007 12.4737C68.7483 12.9915 72.5983 14.0197 76.2307 15.5357L77.8217 16.1961L72.8835 28.0914L71.285 27.4234L71.2925 27.4309Z" stroke="#DDE404" stroke-width="0.345225" stroke-miterlimit="10"/>
<path d="M75.5702 17.1262L71.9528 25.8319C69.2435 24.6986 66.3542 23.9181 63.3447 23.5279L64.568 14.1768C68.4105 14.6796 72.0954 15.6777 75.5627 17.1187L75.5702 17.1262Z" fill="#EF008F"/>
<path d="M40.042 16.2032L41.633 15.5428C45.2654 14.0268 49.1154 12.9986 53.063 12.4808L54.7741 12.2556L56.4477 25.0289L54.7365 25.2541C51.9147 25.6218 49.1679 26.3573 46.5713 27.438L44.9727 28.1059L40.042 16.2107V16.2032Z" stroke="#DDE404" stroke-width="0.345225" stroke-miterlimit="10"/>
<path d="M54.5114 23.535C51.5019 23.9252 48.6126 24.7133 45.9033 25.839L42.2935 17.1333C45.7532 15.6924 49.4381 14.6942 53.2806 14.1914L54.5039 23.5425L54.5114 23.535Z" fill="#DDE404"/>
<path d="M22.0903 31.168L23.141 29.7946C25.5426 26.6576 28.3569 23.8432 31.494 21.4342L32.8674 20.376L40.7025 30.5976L39.3366 31.6483C37.0926 33.3744 35.0813 35.3858 33.3702 37.6297L32.3195 39.0031L22.0978 31.168H22.0903Z" stroke="#DDE404" stroke-width="0.345225" stroke-miterlimit="10"/>
<path d="M38.2708 30.2827C35.9143 32.0989 33.7979 34.2152 31.9817 36.5793L24.5068 30.8455C26.8183 27.8286 29.5201 25.1193 32.5371 22.8003L38.2708 30.2827Z" fill="#EF008F"/>
<path d="M14 53.0825L14.2176 51.3714C14.728 47.4238 15.7487 43.5813 17.2571 39.9489L17.9175 38.3579L29.8128 43.2961L29.1524 44.8872C28.0792 47.4839 27.3437 50.2231 26.9834 53.045L26.7658 54.7636L14 53.09V53.0825Z" stroke="#DDE404" stroke-width="0.345225" stroke-miterlimit="10"/>
<path d="M27.5691 44.2263C26.4434 46.9356 25.6703 49.8174 25.2801 52.8194L15.9365 51.5961C16.4318 47.7536 17.4225 44.0687 18.8634 40.6165L27.5691 44.2338V44.2263Z" fill="#DDE404"/>
<path d="M473.259 74.5989C471.87 74.5989 470.564 74.0585 469.589 73.0829C468.861 72.3549 468.373 71.4393 468.185 70.4487C467.975 69.4355 467.48 68.5199 466.752 67.7919L463.712 64.7525C462.864 65.0527 461.971 65.2028 461.063 65.2028C460.155 65.2028 459.232 65.0452 458.369 64.7375L455.314 67.7919C454.594 68.5124 454.099 69.428 453.888 70.4337C453.881 70.4787 453.873 70.5312 453.858 70.5763V70.6138L453.836 70.6963C453.603 71.6119 453.153 72.415 452.485 73.0829C451.509 74.0585 450.204 74.5989 448.815 74.5989C447.427 74.5989 446.128 74.0585 445.145 73.0829C444.162 72.0997 443.622 70.7939 443.629 69.4055C443.629 68.0171 444.17 66.7187 445.145 65.7431C445.866 65.0151 446.774 64.5348 447.779 64.3397C448.793 64.1296 449.708 63.6342 450.436 62.9138L453.521 59.8293C452.935 58.1256 452.935 56.2869 453.536 54.5833L450.436 51.4838C449.723 50.7709 448.815 50.2755 447.809 50.0579C447.742 50.0429 447.682 50.0354 447.644 50.0204H447.614L447.539 49.9979C446.624 49.7727 445.821 49.3149 445.145 48.647C443.119 46.6206 443.119 43.326 445.145 41.3072C446.128 40.324 447.427 39.7912 448.815 39.7912C450.204 39.7912 451.509 40.3316 452.485 41.3072C453.213 42.0352 453.693 42.9433 453.888 43.9339C454.099 44.9471 454.594 45.8702 455.322 46.5906L458.429 49.6977C459.277 49.405 460.17 49.2474 461.071 49.2474C461.971 49.2474 462.834 49.3975 463.667 49.6826L466.752 46.5981C467.472 45.8777 467.96 44.9696 468.178 43.9639C468.185 43.9039 468.2 43.8513 468.208 43.8213V43.7763L468.238 43.6937C468.463 42.7856 468.921 41.9826 469.589 41.3072C470.572 40.324 471.878 39.7837 473.259 39.7837C474.639 39.7837 475.953 40.324 476.928 41.2997C478.955 43.326 478.955 46.6206 476.928 48.6395C476.2 49.3674 475.292 49.8478 474.294 50.0429C473.281 50.253 472.365 50.7483 471.637 51.4763L468.583 54.5308C469.206 56.2569 469.213 58.1407 468.598 59.8743L471.63 62.9138C472.35 63.6267 473.259 64.1221 474.257 64.3397C474.324 64.3547 474.384 64.3622 474.422 64.3772H474.452L474.527 64.3997C475.442 64.6249 476.245 65.0827 476.913 65.7506C477.889 66.7263 478.429 68.0321 478.429 69.413C478.429 70.8014 477.889 72.1073 476.906 73.0904C475.93 74.066 474.624 74.6064 473.236 74.6064L473.259 74.5989Z" stroke="#DDE404" stroke-width="0.345225" stroke-miterlimit="10"/>
<path d="M475.712 66.9587C475.255 66.5009 474.714 66.2082 474.129 66.0581C474.069 66.0506 474.024 66.0281 473.964 66.0281C472.628 65.7504 471.397 65.0975 470.429 64.1218L466.556 60.2493C467.607 58.3506 467.6 56.0391 466.534 54.1478L470.429 50.2528C471.405 49.2771 472.628 48.6242 473.964 48.3465C474.609 48.2265 475.217 47.9113 475.712 47.4159C477.056 46.0726 477.071 43.8736 475.712 42.5152C474.354 41.1569 472.155 41.1644 470.812 42.5152C470.354 42.973 470.061 43.5134 469.911 44.0988C469.904 44.1588 469.889 44.2038 469.881 44.2639C469.603 45.6073 468.95 46.8306 467.975 47.7987L464.057 51.7162C462.181 50.7031 459.915 50.7106 458.038 51.7388L454.098 47.7987C453.123 46.8306 452.47 45.5998 452.192 44.2639C452.072 43.6185 451.757 43.0181 451.261 42.5152C449.91 41.1644 447.719 41.1569 446.361 42.5152C445.002 43.8736 445.01 46.0651 446.361 47.4159C446.819 47.8737 447.359 48.1664 447.944 48.309C448.004 48.3165 448.049 48.339 448.109 48.339C449.453 48.6167 450.676 49.2696 451.644 50.2453L455.584 54.1853C454.549 56.0541 454.549 58.3205 455.562 60.2043L451.644 64.1218C450.676 65.09 449.445 65.7504 448.109 66.0206C447.464 66.1406 446.856 66.4558 446.361 66.9512C445.017 68.2945 445.002 70.4935 446.361 71.8519C447.719 73.2102 449.918 73.1952 451.261 71.8519C451.719 71.3941 452.012 70.8537 452.162 70.2683C452.169 70.2083 452.184 70.1633 452.199 70.1032C452.477 68.7673 453.13 67.5365 454.098 66.5684L457.993 62.6734C459.885 63.7391 462.196 63.7466 464.095 62.6959L467.967 66.5684C468.943 67.544 469.596 68.7673 469.874 70.1032C469.994 70.7486 470.309 71.349 470.804 71.8519C472.155 73.2027 474.346 73.2102 475.705 71.8519C477.063 70.4935 477.056 68.2945 475.705 66.9512L475.712 66.9587Z" fill="white"/>
<path d="M419.396 74.5087C417.88 70.8838 416.851 67.0413 416.334 63.1013L416.108 61.3901L428.874 59.7166L429.099 61.4277C429.475 64.2495 430.21 66.9888 431.291 69.5705L431.959 71.169L420.056 76.1072L419.396 74.5162V74.5087Z" stroke="#DDE404" stroke-width="0.345225" stroke-miterlimit="10"/>
<path d="M429.7 70.2306L420.987 73.8405C419.546 70.3882 418.548 66.7033 418.045 62.8683L427.396 61.645C427.794 64.647 428.574 67.5289 429.708 70.2306H429.7Z" fill="#EF008F"/>
<path d="M433.633 92.9781C430.503 90.5765 427.696 87.7697 425.287 84.6401L424.229 83.2667L434.451 75.4316L435.501 76.7975C437.22 79.034 439.231 81.0378 441.468 82.7564L442.834 83.8071L434.999 94.0288L433.625 92.9781H433.633Z" stroke="#DDE404" stroke-width="0.345225" stroke-miterlimit="10"/>
<path d="M440.417 84.1298L434.684 91.6122C431.674 89.3007 428.972 86.5989 426.653 83.5894L434.136 77.8557C435.952 80.2122 438.061 82.3211 440.417 84.1298Z" fill="#DDE404"/>
<path d="M455.179 101.894C451.239 101.384 447.404 100.356 443.772 98.8472L442.181 98.1868L447.111 86.2915L448.71 86.9519C451.299 88.0251 454.038 88.7606 456.853 89.1284L458.564 89.3535L456.89 102.127L455.179 101.902V101.894Z" stroke="#DDE404" stroke-width="0.345225" stroke-miterlimit="10"/>
<path d="M456.627 90.8392L455.404 100.19C451.569 99.6875 447.892 98.6968 444.439 97.2559L448.049 88.5427C450.751 89.6685 453.633 90.4415 456.627 90.8392Z" fill="#EF008F"/>
<path d="M463.502 89.3535L465.213 89.1284C468.027 88.7606 470.759 88.0326 473.356 86.9519L474.954 86.2915L479.885 98.1868L478.294 98.8472C474.669 100.356 470.827 101.384 466.887 101.894L465.176 102.119L463.502 89.346V89.3535Z" stroke="#DDE404" stroke-width="0.345225" stroke-miterlimit="10"/>
<path d="M477.634 97.2559C474.181 98.6893 470.504 99.6875 466.669 100.183L465.446 90.8317C468.44 90.4415 471.322 89.661 474.024 88.5427L477.634 97.2559Z" fill="#DDE404"/>
<path d="M479.232 83.8147L480.598 82.764C482.835 81.0454 484.846 79.0416 486.572 76.8051L487.623 75.4392L497.837 83.2743L496.779 84.6477C494.37 87.7773 491.563 90.5766 488.426 92.9856L487.052 94.0363L479.217 83.8147H479.232Z" stroke="#DDE404" stroke-width="0.345225" stroke-miterlimit="10"/>
<path d="M495.42 83.5973C493.101 86.6067 490.399 89.301 487.39 91.62L481.656 84.1376C484.013 82.3289 486.129 80.2201 487.945 77.8635L495.42 83.5973Z" fill="#EF008F"/>
<path d="M490.114 71.169L490.782 69.5705C491.863 66.9813 492.598 64.242 492.974 61.4277L493.199 59.7166L505.972 61.3901L505.747 63.1013C505.229 67.0488 504.193 70.8913 502.677 74.5162L502.017 76.1072L490.122 71.169H490.114Z" stroke="#DDE404" stroke-width="0.345225" stroke-miterlimit="10"/>
<path d="M504.036 62.8761C503.525 66.7111 502.527 70.396 501.086 73.8483L492.373 70.2384C493.506 67.5367 494.287 64.6548 494.685 61.6528L504.036 62.8761Z" fill="#DDE404"/>
<path d="M492.989 53.045C492.628 50.2231 491.893 47.4764 490.82 44.8872L490.159 43.2961L502.054 38.3579L502.715 39.9489C504.223 43.5813 505.244 47.4238 505.762 51.3789L505.979 53.09L493.206 54.7636L492.989 53.045Z" stroke="#DDE404" stroke-width="0.345225" stroke-miterlimit="10"/>
<path d="M504.043 51.596L494.692 52.8193C494.302 49.8099 493.529 46.928 492.403 44.2187L501.109 40.6089C502.542 44.0686 503.541 47.7535 504.036 51.596H504.043Z" fill="#EF008F"/>
<path d="M486.617 37.6297C484.899 35.3858 482.887 33.3744 480.643 31.6483L479.277 30.5976L487.112 20.376L488.486 21.4342C491.623 23.8507 494.43 26.6651 496.839 29.7946L497.889 31.168L487.675 39.0031L486.625 37.6372L486.617 37.6297Z" stroke="#DDE404" stroke-width="0.345225" stroke-miterlimit="10"/>
<path d="M495.465 30.8455L487.99 36.5793C486.174 34.2152 484.065 32.0989 481.701 30.2827L487.435 22.8003C490.452 25.1193 493.154 27.8286 495.465 30.8455Z" fill="#DDE404"/>
<path d="M473.394 27.4309C470.804 26.3502 468.058 25.6147 465.228 25.247L463.517 25.0219L465.191 12.2485L466.902 12.4737C470.849 12.9915 474.699 14.0197 478.332 15.5357L479.923 16.1961L474.985 28.0914L473.386 27.4234L473.394 27.4309Z" stroke="#DDE404" stroke-width="0.345225" stroke-miterlimit="10"/>
<path d="M477.671 17.1262L474.054 25.8319C471.345 24.6986 468.455 23.9181 465.446 23.5279L466.669 14.1768C470.512 14.6796 474.196 15.6777 477.664 17.1187L477.671 17.1262Z" fill="#EF008F"/>
<path d="M442.143 16.2032L443.734 15.5428C447.366 14.0268 451.216 12.9986 455.164 12.4808L456.875 12.2556L458.549 25.0289L456.838 25.2541C454.016 25.6218 451.269 26.3573 448.672 27.438L447.074 28.1059L442.143 16.2107V16.2032Z" stroke="#DDE404" stroke-width="0.345225" stroke-miterlimit="10"/>
<path d="M456.612 23.535C453.603 23.9252 450.714 24.7133 448.004 25.839L444.395 17.1333C447.854 15.6924 451.539 14.6942 455.382 14.1914L456.605 23.5425L456.612 23.535Z" fill="#DDE404"/>
<path d="M424.191 31.168L425.242 29.7946C427.644 26.6576 430.458 23.8432 433.595 21.4342L434.968 20.376L442.804 30.5976L441.438 31.6483C439.194 33.3744 437.182 35.3858 435.471 37.6297L434.421 39.0031L424.199 31.168H424.191Z" stroke="#DDE404" stroke-width="0.345225" stroke-miterlimit="10"/>
<path d="M440.372 30.2827C438.015 32.0989 435.899 34.2152 434.083 36.5793L426.608 30.8455C428.919 27.8286 431.621 25.1193 434.638 22.8003L440.372 30.2827Z" fill="#EF008F"/>
<path d="M416.101 53.0825L416.319 51.3714C416.829 47.4238 417.85 43.5813 419.358 39.9489L420.019 38.3579L431.914 43.2961L431.253 44.8872C430.18 47.4839 429.445 50.2231 429.085 53.045L428.867 54.7636L416.101 53.09V53.0825Z" stroke="#DDE404" stroke-width="0.345225" stroke-miterlimit="10"/>
<path d="M429.67 44.2263C428.544 46.9356 427.771 49.8174 427.381 52.8194L418.038 51.5961C418.533 47.7536 419.524 44.0687 420.964 40.6165L429.67 44.2338V44.2263Z" fill="#DDE404"/>
<path d="M463.082 1.27612H57.1873C26.3083 1.27612 1.27588 26.3085 1.27588 57.1876C1.27588 88.0666 26.3083 113.099 57.1873 113.099H463.082C493.961 113.099 518.993 88.0666 518.993 57.1876C518.993 26.3085 493.961 1.27612 463.082 1.27612Z" stroke="white" stroke-width="2.54416" stroke-miterlimit="10"/>
<path d="M119.871 41.7285H152.72V45.5364C152.72 46.7359 152.566 47.796 152.259 48.7166C151.952 49.6093 151.45 50.5438 150.753 51.5202C150.055 52.4687 148.967 53.8077 147.489 55.5373C145.787 57.4064 144.434 59.0244 143.43 60.3914C142.454 61.7304 141.617 63.2787 140.919 65.0362C140.25 66.7658 139.817 68.7604 139.622 71.02H126.734C126.929 67.7282 128.003 64.6875 129.956 61.8978C131.936 59.0802 134.559 56.2069 137.823 53.2777C138.046 53.0545 138.269 52.8314 138.492 52.6082C138.743 52.385 138.98 52.1618 139.204 51.9387C139.789 51.3807 140.319 50.8925 140.794 50.4741C141.268 50.0277 141.645 49.679 141.923 49.428V49.2187H119.871V41.7285ZM154.728 41.7285H187.577V45.5364C187.577 46.7359 187.423 47.796 187.117 48.7166C186.81 49.6093 186.308 50.5438 185.61 51.5202C184.913 52.4687 183.825 53.8077 182.346 55.5373C180.644 57.4064 179.291 59.0244 178.287 60.3914C177.311 61.7304 176.474 63.2787 175.776 65.0362C175.107 66.7658 174.675 68.7604 174.479 71.02H161.591C161.786 67.7282 162.86 64.6875 164.813 61.8978C166.794 59.0802 169.416 56.2069 172.68 53.2777C172.903 53.0545 173.126 52.8314 173.349 52.6082C173.601 52.385 173.838 52.1618 174.061 51.9387C174.647 51.3807 175.177 50.8925 175.651 50.4741C176.125 50.0277 176.502 49.679 176.781 49.428V49.2187H154.728V41.7285ZM189.586 41.7285H222.434V45.5364C222.434 46.7359 222.281 47.796 221.974 48.7166C221.667 49.6093 221.165 50.5438 220.467 51.5202C219.77 52.4687 218.682 53.8077 217.203 55.5373C215.502 57.4064 214.149 59.0244 213.144 60.3914C212.168 61.7304 211.331 63.2787 210.634 65.0362C209.964 66.7658 209.532 68.7604 209.337 71.02H196.448C196.644 67.7282 197.718 64.6875 199.67 61.8978C201.651 59.0802 204.273 56.2069 207.537 53.2777C207.76 53.0545 207.984 52.8314 208.207 52.6082C208.458 52.385 208.695 52.1618 208.918 51.9387C209.504 51.3807 210.034 50.8925 210.508 50.4741C210.982 50.0277 211.359 49.679 211.638 49.428V49.2187H189.586V41.7285ZM255.045 54.9934C256.691 55.3839 257.975 56.1371 258.895 57.253C259.844 58.3689 260.318 60.0287 260.318 62.2326C260.318 64.1853 259.969 65.8033 259.272 67.0866C258.574 68.3698 257.445 69.3462 255.882 70.0157C254.348 70.6853 252.326 71.02 249.815 71.02H225.545V41.1426H249.02C252.591 41.1426 255.185 41.8261 256.803 43.193C258.421 44.5321 259.23 46.4291 259.23 48.884C259.23 50.4741 258.867 51.7573 258.142 52.7337C257.417 53.6822 256.385 54.3517 255.045 54.7423V54.9934ZM246.551 64.2411C247.695 64.2411 248.518 64.0319 249.02 63.6134C249.522 63.1671 249.773 62.4697 249.773 61.5212C249.773 60.5727 249.522 59.8753 249.02 59.4289C248.518 58.9826 247.695 58.7594 246.551 58.7594H235.169V64.2411H246.551ZM245.965 52.8174C246.914 52.8174 247.625 52.6221 248.099 52.2316C248.573 51.841 248.811 51.2273 248.811 50.3904C248.811 49.5535 248.573 48.9398 248.099 48.5492C247.653 48.1587 246.941 47.9634 245.965 47.9634H235.169V52.8174H245.965ZM293.572 41.1426V48.7584H282.274V71.02H272.649V48.7584H261.309V41.1426H293.572ZM321.034 52.7756C320.95 51.4365 320.295 50.2928 319.067 49.3443C317.84 48.3958 316.012 47.9215 313.585 47.9215C311.716 47.9215 310.14 48.2563 308.857 48.9258C307.574 49.5674 306.611 50.502 305.97 51.7294C305.328 52.929 305.007 54.3796 305.007 56.0813C305.007 57.783 305.328 59.2476 305.97 60.4751C306.611 61.6746 307.574 62.6092 308.857 63.2787C310.14 63.9203 311.716 64.2411 313.585 64.2411C316.096 64.2411 317.923 63.7529 319.067 62.7765C320.211 61.8002 320.839 60.4472 320.95 58.7176H332.458C332.402 61.563 331.607 63.99 330.072 65.9986C328.538 67.9793 326.376 69.4857 323.586 70.5179C320.797 71.5222 317.463 72.0243 313.585 72.0243C309.652 72.0243 306.249 71.4524 303.375 70.3087C300.53 69.137 298.326 67.3655 296.764 64.9943C295.201 62.5952 294.42 59.6242 294.42 56.0813C294.42 52.5384 295.201 49.5814 296.764 47.2102C298.326 44.811 300.53 43.0396 303.375 41.8958C306.249 40.7242 309.652 40.1383 313.585 40.1383C317.435 40.1383 320.755 40.6405 323.545 41.6448C326.334 42.6212 328.482 44.0578 329.989 45.9548C331.523 47.8518 332.318 50.1254 332.374 52.7756H321.034ZM335.919 71.02V62.2326H346.213V71.02H335.919ZM360.255 71.02H350.63V41.1426H360.255V71.02ZM383.393 40.1383C387.466 40.1383 390.967 40.7242 393.897 41.8958C396.826 43.0396 399.071 44.7971 400.634 47.1683C402.224 49.5395 403.019 52.5105 403.019 56.0813C403.019 59.6521 402.224 62.6231 400.634 64.9943C399.071 67.3655 396.826 69.137 393.897 70.3087C390.967 71.4524 387.466 72.0243 383.393 72.0243C379.293 72.0243 375.778 71.4524 372.849 70.3087C369.919 69.137 367.66 67.3655 366.07 64.9943C364.507 62.6231 363.726 59.6521 363.726 56.0813C363.726 52.5105 364.507 49.5395 366.07 47.1683C367.66 44.7971 369.919 43.0396 372.849 41.8958C375.778 40.7242 379.293 40.1383 383.393 40.1383ZM383.393 64.2411C386.406 64.2411 388.666 63.5297 390.172 62.107C391.707 60.6843 392.474 58.6757 392.474 56.0813C392.474 53.4869 391.707 51.4784 390.172 50.0556C388.666 48.6329 386.406 47.9215 383.393 47.9215C380.353 47.9215 378.079 48.6329 376.573 50.0556C375.066 51.4784 374.313 53.4869 374.313 56.0813C374.313 58.6757 375.066 60.6843 376.573 62.107C378.079 63.5297 380.353 64.2411 383.393 64.2411Z" fill="white"/>
<path d="M239.548 37.7959H234.43V41.841H239.548V37.7959Z" fill="white"/>
<path d="M247.631 37.7952H242.513V41.8403H247.631V37.7952Z" fill="white"/>
<path d="M239.548 71.1997H234.43V75.2448H239.548V71.1997Z" fill="white"/>
<path d="M247.631 71.1997H242.513V75.2448H247.631V71.1997Z" fill="white"/>
<path d="M214.513 14.6113L216.577 12.5475L218.648 14.6113L219.849 13.4106L216.577 10.1384L213.312 13.4106L214.513 14.6113Z" fill="white"/>
<path d="M212.469 14.2726L211.266 15.4763L212.469 16.6801L213.673 15.4763L212.469 14.2726Z" fill="white"/>
<path d="M214.513 16.3081L216.577 18.3795L218.648 16.3081L219.849 17.5089L216.577 20.781L213.312 17.5164L213.305 17.5089L214.513 16.3081Z" fill="white"/>
<path d="M220.693 14.2596L219.489 15.4634L220.693 16.6671L221.896 15.4634L220.693 14.2596Z" fill="white"/>
<path d="M217.8 15.4599L216.577 14.2366L215.676 15.1372L215.571 15.2422L215.361 15.4524L216.577 16.6682L217.8 15.4449" fill="white"/>
<path d="M198.31 13.298C198.137 12.2473 197.229 11.797 196.006 11.6919V10.1384H195.06V11.6919C194.812 11.6919 194.557 11.6769 194.302 11.6919V10.1534H193.356V11.7069C193.154 11.7069 191.45 11.7069 191.45 11.7069V12.7201C191.45 12.7201 192.148 12.7051 192.141 12.7201C192.523 12.7201 192.651 12.9453 192.688 13.1329V17.3957C192.688 17.5157 192.606 17.7034 192.343 17.7109C192.358 17.7259 191.653 17.7109 191.653 17.7109L191.465 18.8441C191.465 18.8441 193.154 18.8441 193.379 18.8441V20.4201H194.325V18.8366C194.58 18.8366 194.835 18.8441 195.083 18.8366V20.4126H196.028V18.8441C197.477 18.8591 198.662 18.2437 198.805 16.8778C198.88 16.0523 198.182 15.1742 197.477 14.919C198.024 14.6414 198.392 14.1235 198.31 13.3055V13.298ZM196.989 16.6677C196.831 18.0186 194.977 17.7109 194.332 17.7184L194.31 15.632C194.955 15.632 196.981 15.4444 196.981 16.6677H196.989ZM196.576 13.7333C196.463 14.9416 194.88 14.6789 194.347 14.6789L194.325 12.7877C194.857 12.7877 196.471 12.5625 196.576 13.7333Z" fill="#DDE404"/>
<path d="M173.678 16.7806L177.604 15.062L173.678 10.2363L169.753 15.062L173.678 16.7806Z" fill="white"/>
<path d="M173.678 18.4012L169.753 16.6826L173.678 20.7803L177.604 16.6826L173.678 18.4012Z" fill="white"/>
<path d="M150.158 14.6113L152.23 12.5475L154.293 14.6113L155.494 13.4106L152.23 10.1384L148.958 13.4106L150.158 14.6113Z" fill="#DDE404"/>
<path d="M148.117 14.2628L146.913 15.4666L148.117 16.6703L149.321 15.4666L148.117 14.2628Z" fill="#DDE404"/>
<path d="M150.158 16.3081L152.23 18.3795L154.293 16.3081L155.494 17.5089L152.23 20.781L148.958 17.5164V17.5089L150.158 16.3081Z" fill="#DDE404"/>
<path d="M156.348 14.2574L155.144 15.4612L156.348 16.6649L157.552 15.4612L156.348 14.2574Z" fill="#DDE404"/>
<path d="M153.445 15.4599L152.222 14.2366L151.322 15.1372L151.216 15.2422L151.006 15.4524L152.222 16.6682L153.445 15.4449" fill="#DDE404"/>
<path d="M133.962 13.298C133.79 12.2473 132.882 11.797 131.658 11.6919V10.1384H130.713V11.6919C130.465 11.6919 130.21 11.6769 129.955 11.6919V10.1534H129.009V11.7069C128.807 11.7069 127.103 11.7069 127.103 11.7069V12.7201C127.103 12.7201 127.801 12.7051 127.793 12.7201C128.176 12.7201 128.304 12.9453 128.341 13.1329V17.3957C128.341 17.5157 128.259 17.7034 127.996 17.7109C128.011 17.7259 127.306 17.7109 127.306 17.7109L127.118 18.8441C127.118 18.8441 128.807 18.8441 129.032 18.8441V20.4201H129.977V18.8366C130.233 18.8366 130.488 18.8441 130.735 18.8366V20.4126H131.681V18.8441C133.129 18.8591 134.315 18.2437 134.458 16.8778C134.533 16.0523 133.835 15.1742 133.129 14.919C133.677 14.6414 134.045 14.1235 133.962 13.3055V13.298ZM132.642 16.6677C132.484 18.0186 130.63 17.7109 129.985 17.7184L129.962 15.632C130.608 15.632 132.634 15.4444 132.634 16.6677H132.642ZM132.229 13.7333C132.116 14.9416 130.533 14.6789 130 14.6789L129.977 12.7877C130.51 12.7877 132.124 12.5625 132.229 13.7333Z" fill="white"/>
<path d="M109.324 16.7806L113.249 15.062L109.324 10.2363L105.399 15.062L109.324 16.7806Z" fill="#DDE404"/>
<path d="M109.324 18.4012L105.399 16.6826L109.324 20.7803L113.257 16.6826L109.324 18.4012Z" fill="#DDE404"/>
<path d="M278.859 14.6113L280.931 12.5475L282.995 14.6113L284.195 13.4106L280.931 10.1384L277.659 13.4106L278.859 14.6113Z" fill="#DDE404"/>
<path d="M276.827 14.2687L275.623 15.4724L276.827 16.6762L278.031 15.4724L276.827 14.2687Z" fill="#DDE404"/>
<path d="M278.859 16.3081L280.931 18.3795L282.995 16.3081L284.195 17.5089L280.931 20.781L277.659 17.5164V17.5089L278.859 16.3081Z" fill="#DDE404"/>
<path d="M285.05 14.2564L283.846 15.4602L285.05 16.664L286.254 15.4602L285.05 14.2564Z" fill="#DDE404"/>
<path d="M282.147 15.4599L280.923 14.2366L280.023 15.1372L279.918 15.2422L279.708 15.4524L280.923 16.6682L282.147 15.4449" fill="#DDE404"/>
<path d="M262.657 13.298C262.484 12.2473 261.576 11.797 260.353 11.6919V10.1384H259.407V11.6919C259.16 11.6919 258.904 11.6769 258.649 11.6919V10.1534H257.704V11.7069C257.501 11.7069 255.797 11.7069 255.797 11.7069V12.7201C255.797 12.7201 256.495 12.7051 256.488 12.7201C256.871 12.7201 256.998 12.9453 257.036 13.1329V17.3957C257.036 17.5157 256.953 17.7034 256.69 17.7109C256.705 17.7259 256 17.7109 256 17.7109L255.812 18.8441C255.812 18.8441 257.501 18.8441 257.726 18.8441V20.4201H258.672V18.8366C258.927 18.8366 259.182 18.8441 259.43 18.8366V20.4126H260.375V18.8441C261.824 18.8591 263.01 18.2437 263.152 16.8778C263.227 16.0523 262.529 15.1742 261.824 14.919C262.372 14.6414 262.739 14.1235 262.657 13.3055V13.298ZM261.343 16.6677C261.186 18.0186 259.332 17.7109 258.687 17.7184L258.664 15.632C259.31 15.632 261.336 15.4444 261.336 16.6677H261.343ZM260.931 13.7333C260.818 14.9416 259.235 14.6789 258.702 14.6789L258.679 12.7877C259.212 12.7877 260.826 12.5625 260.931 13.7333Z" fill="white"/>
<path d="M238.025 16.7806L241.95 15.062L238.025 10.2363L234.1 15.062L238.025 16.7806Z" fill="#DDE404"/>
<path d="M238.025 18.4012L234.1 16.6826L238.025 20.7803L241.95 16.6826L238.025 18.4012Z" fill="#DDE404"/>
<path d="M343.214 14.6113L345.278 12.5475L347.342 14.6113L348.55 13.4106L345.278 10.1384L342.006 13.4106L343.214 14.6113Z" fill="white"/>
<path d="M341.179 14.2784L339.976 15.4822L341.179 16.6859L342.383 15.4822L341.179 14.2784Z" fill="white"/>
<path d="M343.214 16.3081L345.278 18.3795L347.342 16.3081L348.55 17.5089L345.278 20.781L342.006 17.5164V17.5089L343.214 16.3081Z" fill="white"/>
<path d="M349.395 14.2582L348.191 15.4619L349.395 16.6657L350.599 15.4619L349.395 14.2582Z" fill="white"/>
<path d="M346.494 15.4599L345.27 14.2366L344.37 15.1372L344.265 15.2422L344.055 15.4524L345.27 16.6682L346.494 15.4449" fill="white"/>
<path d="M327.011 13.298C326.838 12.2473 325.93 11.797 324.707 11.6919V10.1384H323.761V11.6919C323.514 11.6919 323.258 11.6769 323.003 11.6919V10.1534H322.058V11.7069C321.855 11.7069 320.151 11.7069 320.151 11.7069V12.7201C320.151 12.7201 320.849 12.7051 320.842 12.7201C321.225 12.7201 321.352 12.9453 321.39 13.1329V17.3957C321.39 17.5157 321.307 17.7034 321.044 17.7109C321.059 17.7259 320.354 17.7109 320.354 17.7109L320.166 18.8441C320.166 18.8441 321.855 18.8441 322.08 18.8441V20.4201H323.026V18.8366C323.281 18.8366 323.536 18.8441 323.784 18.8366V20.4126H324.729V18.8441C326.178 18.8591 327.364 18.2437 327.506 16.8778C327.581 16.0523 326.883 15.1742 326.178 14.919C326.726 14.6414 327.093 14.1235 327.011 13.3055V13.298ZM325.69 16.6677C325.532 18.0186 323.679 17.7109 323.033 17.7184L323.011 15.632C323.656 15.632 325.682 15.4444 325.682 16.6677H325.69ZM325.277 13.7333C325.165 14.9416 323.581 14.6789 323.048 14.6789L323.026 12.7877C323.559 12.7877 325.172 12.5625 325.277 13.7333Z" fill="#DDE404"/>
<path d="M302.373 16.7806L306.298 15.062L302.373 10.2363L298.455 15.062L302.373 16.7806Z" fill="white"/>
<path d="M302.373 18.4012L298.455 16.6826L302.373 20.7803L306.305 16.6826L302.373 18.4012Z" fill="white"/>
<path d="M407.561 14.6113L409.625 12.5475L411.696 14.6113L412.897 13.4106L409.625 10.1384L406.36 13.4106L407.561 14.6113Z" fill="#DDE404"/>
<path d="M405.532 14.2804L404.328 15.4841L405.532 16.6879L406.736 15.4841L405.532 14.2804Z" fill="#DDE404"/>
<path d="M407.561 16.3081L409.625 18.3795L411.696 16.3081L412.897 17.5089L409.625 20.781L406.36 17.5164V17.5089L407.561 16.3081Z" fill="#DDE404"/>
<path d="M413.753 14.2552L412.549 15.459L413.753 16.6627L414.956 15.459L413.753 14.2552Z" fill="#DDE404"/>
<path d="M410.848 15.4599L409.625 14.2366L408.724 15.1372L408.619 15.2422L408.409 15.4524L409.625 16.6682L410.848 15.4449" fill="#DDE404"/>
<path d="M391.358 13.298C391.185 12.2473 390.277 11.797 389.054 11.6919V10.1384H388.108V11.6919C387.861 11.6919 387.606 11.6769 387.35 11.6919V10.1534H386.405V11.7069C386.202 11.7069 384.499 11.7069 384.499 11.7069V12.7201C384.499 12.7201 385.196 12.7051 385.189 12.7201C385.572 12.7201 385.699 12.9453 385.737 13.1329V17.3957C385.737 17.5157 385.654 17.7034 385.392 17.7109C385.407 17.7259 384.701 17.7109 384.701 17.7109L384.514 18.8441C384.514 18.8441 386.202 18.8441 386.427 18.8441V20.4201H387.373V18.8366C387.628 18.8366 387.883 18.8441 388.131 18.8366V20.4126H389.076V18.8441C390.525 18.8591 391.711 18.2437 391.853 16.8778C391.928 16.0523 391.23 15.1742 390.525 14.919C391.073 14.6414 391.441 14.1235 391.358 13.3055V13.298ZM390.037 16.6677C389.88 18.0186 388.026 17.7109 387.38 17.7184L387.358 15.632C388.003 15.632 390.03 15.4444 390.03 16.6677H390.037ZM389.632 13.7333C389.519 14.9416 387.936 14.6789 387.403 14.6789L387.38 12.7877C387.913 12.7877 389.527 12.5625 389.632 13.7333Z" fill="white"/>
<path d="M366.727 16.7806L370.652 15.062L366.727 10.2363L362.802 15.062L366.727 16.7806Z" fill="#DDE404"/>
<path d="M366.727 18.4012L362.802 16.6826L366.727 20.7803L370.652 16.6826L366.727 18.4012Z" fill="#DDE404"/>
<path d="M214.513 97.1433L216.577 95.072L218.648 97.1433L219.849 95.935L216.577 92.6704L213.312 95.935L214.513 97.1358" fill="white"/>
<path d="M212.464 96.7984L211.261 98.0022L212.464 99.2059L213.668 98.0022L212.464 96.7984Z" fill="white"/>
<path d="M214.513 98.8396L216.577 100.903L218.648 98.8396L219.849 100.04L216.577 103.305L213.312 100.04H213.305L214.513 98.8396Z" fill="white"/>
<path d="M220.695 96.7862L219.491 97.99L220.695 99.1937L221.899 97.99L220.695 96.7862Z" fill="white"/>
<path d="M217.8 97.9911L216.577 96.7678L215.676 97.6684L215.571 97.7735L215.361 97.9836L216.577 99.1994L217.8 97.9761" fill="white"/>
<path d="M198.31 95.83C198.137 94.7793 197.229 94.329 196.006 94.2239V92.6704H195.06V94.2239C194.812 94.2239 194.557 94.2089 194.302 94.2239V92.6854H193.356V94.2389C193.154 94.2389 191.45 94.2389 191.45 94.2389V95.2521C191.45 95.2521 192.148 95.2371 192.141 95.2521C192.523 95.2521 192.651 95.4772 192.688 95.6649V99.9276C192.688 100.048 192.606 100.235 192.343 100.243C192.358 100.258 191.653 100.243 191.653 100.243L191.465 101.376C191.465 101.376 193.154 101.376 193.379 101.376V102.952H194.325V101.369C194.58 101.369 194.835 101.376 195.083 101.369V102.945H196.028V101.376C197.477 101.391 198.662 100.776 198.805 99.4098C198.88 98.5843 198.182 97.7062 197.477 97.451C198.024 97.1733 198.392 96.6555 198.31 95.8375V95.83ZM196.989 99.1997C196.831 100.551 194.977 100.243 194.332 100.25L194.31 98.164C194.955 98.164 196.981 97.9764 196.981 99.1997H196.989ZM196.576 96.2577C196.463 97.466 194.88 97.2034 194.347 97.2034L194.325 95.3121C194.857 95.3121 196.471 95.087 196.576 96.2577Z" fill="#DDE404"/>
<path d="M173.678 99.3123L177.604 97.5861L173.678 92.7605L169.753 97.5861L173.678 99.3123Z" fill="white"/>
<path d="M173.678 100.926L169.753 99.2073L173.678 103.305L177.604 99.2073L173.678 100.926Z" fill="white"/>
<path d="M150.158 97.1433L152.23 95.072L154.293 97.1433L155.494 95.935L152.23 92.6704L148.958 95.935L150.158 97.1358" fill="#DDE404"/>
<path d="M148.112 96.797L146.908 98.0007L148.112 99.2045L149.316 98.0007L148.112 96.797Z" fill="#DDE404"/>
<path d="M150.158 98.8396L152.23 100.903L154.293 98.8396L155.494 100.04L152.23 103.305L148.958 100.04L150.158 98.8396Z" fill="#DDE404"/>
<path d="M156.342 96.784L155.139 97.9878L156.342 99.1915L157.546 97.9878L156.342 96.784Z" fill="#DDE404"/>
<path d="M153.445 97.9911L152.222 96.7678L151.322 97.6684L151.216 97.7735L151.006 97.9836L152.222 99.1994L153.445 97.9761" fill="#DDE404"/>
<path d="M133.962 95.83C133.79 94.7793 132.882 94.329 131.658 94.2239V92.6704H130.713V94.2239C130.465 94.2239 130.21 94.2089 129.955 94.2239V92.6854H129.009V94.2389C128.807 94.2389 127.103 94.2389 127.103 94.2389V95.2521C127.103 95.2521 127.801 95.2371 127.793 95.2521C128.176 95.2521 128.304 95.4772 128.341 95.6649V99.9276C128.341 100.048 128.259 100.235 127.996 100.243C128.011 100.258 127.306 100.243 127.306 100.243L127.118 101.376C127.118 101.376 128.807 101.376 129.032 101.376V102.952H129.977V101.369C130.233 101.369 130.488 101.376 130.735 101.369V102.945H131.681V101.376C133.129 101.391 134.315 100.776 134.458 99.4098C134.533 98.5843 133.835 97.7062 133.129 97.451C133.677 97.1733 134.045 96.6555 133.962 95.8375V95.83ZM132.642 99.1997C132.484 100.551 130.63 100.243 129.985 100.25L129.962 98.164C130.608 98.164 132.634 97.9764 132.634 99.1997H132.642ZM132.229 96.2577C132.116 97.466 130.533 97.2034 130 97.2034L129.977 95.3121C130.51 95.3121 132.124 95.087 132.229 96.2577Z" fill="white"/>
<path d="M109.324 99.3128L113.249 97.5866L109.324 92.761L105.399 97.5866L109.324 99.3128Z" fill="#DDE404"/>
<path d="M109.324 100.926L105.399 99.2073L109.324 103.305L113.257 99.2073L109.324 100.926Z" fill="#DDE404"/>
<path d="M278.859 97.1433L280.931 95.072L282.995 97.1433L284.195 95.935L280.931 92.6704L277.659 95.935L278.859 97.1358" fill="#DDE404"/>
<path d="M276.822 96.8031L275.618 98.0068L276.822 99.2106L278.026 98.0068L276.822 96.8031Z" fill="#DDE404"/>
<path d="M278.859 98.8396L280.931 100.903L282.995 98.8396L284.195 100.04L280.931 103.305L277.659 100.04L278.859 98.8396Z" fill="#DDE404"/>
<path d="M285.045 96.7828L283.841 97.9866L285.045 99.1903L286.248 97.9866L285.045 96.7828Z" fill="#DDE404"/>
<path d="M282.147 97.9911L280.923 96.7678L280.023 97.6684L279.918 97.7735L279.708 97.9836L280.923 99.1994L282.147 97.9761" fill="#DDE404"/>
<path d="M262.657 95.83C262.484 94.7793 261.576 94.329 260.353 94.2239V92.6704H259.407V94.2239C259.16 94.2239 258.904 94.2089 258.649 94.2239V92.6854H257.704V94.2389C257.501 94.2389 255.797 94.2389 255.797 94.2389V95.2521C255.797 95.2521 256.495 95.2371 256.488 95.2521C256.871 95.2521 256.998 95.4772 257.036 95.6649V99.9276C257.036 100.048 256.953 100.235 256.69 100.243C256.705 100.258 256 100.243 256 100.243L255.812 101.376C255.812 101.376 257.501 101.376 257.726 101.376V102.952H258.672V101.369C258.927 101.369 259.182 101.376 259.43 101.369V102.945H260.375V101.376C261.824 101.391 263.01 100.776 263.152 99.4098C263.227 98.5843 262.529 97.7062 261.824 97.451C262.372 97.1733 262.739 96.6555 262.657 95.8375V95.83ZM261.343 99.1997C261.186 100.551 259.332 100.243 258.687 100.25L258.664 98.164C259.31 98.164 261.336 97.9764 261.336 99.1997H261.343ZM260.931 96.2577C260.818 97.466 259.235 97.2034 258.702 97.2034L258.679 95.3121C259.212 95.3121 260.826 95.087 260.931 96.2577Z" fill="white"/>
<path d="M238.025 99.3123L241.95 97.5861L238.025 92.7605L234.1 97.5861L238.025 99.3123Z" fill="#DDE404"/>
<path d="M238.025 100.926L234.1 99.2073L238.025 103.305L241.95 99.2073L238.025 100.926Z" fill="#DDE404"/>
<path d="M343.214 97.1433L345.278 95.072L347.342 97.1433L348.55 95.935L345.278 92.6704L342.006 95.935L343.214 97.1358" fill="white"/>
<path d="M341.174 96.805L339.971 98.0088L341.174 99.2125L342.378 98.0088L341.174 96.805Z" fill="white"/>
<path d="M343.214 98.8396L345.278 100.903L347.342 98.8396L348.55 100.04L345.278 103.305L342.006 100.04L343.214 98.8396Z" fill="white"/>
<path d="M349.39 96.7848L348.187 97.9885L349.39 99.1923L350.594 97.9885L349.39 96.7848Z" fill="white"/>
<path d="M346.494 97.9911L345.27 96.7678L344.37 97.6684L344.265 97.7735L344.055 97.9836L345.27 99.1994L346.494 97.9761" fill="white"/>
<path d="M327.011 95.83C326.838 94.7793 325.93 94.329 324.707 94.2239V92.6704H323.761V94.2239C323.514 94.2239 323.258 94.2089 323.003 94.2239V92.6854H322.058V94.2389C321.855 94.2389 320.151 94.2389 320.151 94.2389V95.2521C320.151 95.2521 320.849 95.2371 320.842 95.2521C321.225 95.2521 321.352 95.4772 321.39 95.6649V99.9276C321.39 100.048 321.307 100.235 321.044 100.243C321.059 100.258 320.354 100.243 320.354 100.243L320.166 101.376C320.166 101.376 321.855 101.376 322.08 101.376V102.952H323.026V101.369C323.281 101.369 323.536 101.376 323.784 101.369V102.945H324.729V101.376C326.178 101.391 327.364 100.776 327.506 99.4098C327.581 98.5843 326.883 97.7062 326.178 97.451C326.726 97.1733 327.093 96.6555 327.011 95.8375V95.83ZM325.69 99.1997C325.532 100.551 323.679 100.243 323.033 100.25L323.011 98.164C323.656 98.164 325.682 97.9764 325.682 99.1997H325.69ZM325.277 96.2577C325.165 97.466 323.581 97.2034 323.048 97.2034L323.026 95.3121C323.559 95.3121 325.172 95.087 325.277 96.2577Z" fill="#DDE404"/>
<path d="M302.373 99.3123L306.298 97.5861L302.373 92.7605L298.455 97.5861L302.373 99.3123Z" fill="white"/>
<path d="M302.373 100.926L298.455 99.2073L302.373 103.305L306.305 99.2073L302.373 100.926Z" fill="white"/>
<path d="M407.561 97.1433L409.624 95.072L411.696 97.1433L412.897 95.935L409.624 92.6704L406.36 95.935L407.561 97.1358" fill="#DDE404"/>
<path d="M405.519 96.8065L404.315 98.0103L405.519 99.214L406.723 98.0102L405.519 96.8065Z" fill="#DDE404"/>
<path d="M407.561 98.8396L409.624 100.903L411.696 98.8396L412.897 100.04L409.624 103.305L406.36 100.04L407.561 98.8396Z" fill="#DDE404"/>
<path d="M413.748 96.7814L412.544 97.9851L413.748 99.1889L414.951 97.9851L413.748 96.7814Z" fill="#DDE404"/>
<path d="M410.848 97.9911L409.624 96.7678L408.724 97.6684L408.619 97.7735L408.409 97.9836L409.624 99.1994L410.848 97.9761" fill="#DDE404"/>
<path d="M391.358 95.83C391.185 94.7793 390.277 94.329 389.054 94.2239V92.6704H388.108V94.2239C387.861 94.2239 387.606 94.2089 387.35 94.2239V92.6854H386.405V94.2389C386.202 94.2389 384.499 94.2389 384.499 94.2389V95.2521C384.499 95.2521 385.196 95.2371 385.189 95.2521C385.572 95.2521 385.699 95.4772 385.737 95.6649V99.9276C385.737 100.048 385.654 100.235 385.392 100.243C385.407 100.258 384.701 100.243 384.701 100.243L384.514 101.376C384.514 101.376 386.202 101.376 386.427 101.376V102.952H387.373V101.369C387.628 101.369 387.883 101.376 388.131 101.369V102.945H389.076V101.376C390.525 101.391 391.711 100.776 391.853 99.4098C391.928 98.5843 391.23 97.7062 390.525 97.451C391.073 97.1733 391.441 96.6555 391.358 95.8375V95.83ZM390.037 99.1997C389.88 100.551 388.026 100.243 387.38 100.25L387.358 98.164C388.003 98.164 390.03 97.9764 390.03 99.1997H390.037ZM389.632 96.2577C389.519 97.466 387.936 97.2034 387.403 97.2034L387.38 95.3121C387.913 95.3121 389.527 95.087 389.632 96.2577Z" fill="white"/>
<path d="M366.727 99.3123L370.652 97.5861L366.727 92.7605L362.802 97.5861L366.727 99.3123Z" fill="#DDE404"/>
<path d="M366.727 100.926L362.802 99.2073L366.727 103.305L370.652 99.2073L366.727 100.926Z" fill="#DDE404"/>
<path d="M121.647 29.3665H402.713" stroke="#DDE404" stroke-width="1.59104" stroke-miterlimit="10"/>
<path d="M121.647 84.7297H402.713" stroke="#DDE404" stroke-width="1.59104" stroke-miterlimit="10"/>
</g>
<defs>
<clipPath id="clip0_105_3170">
<rect width="520.261" height="114.375" fill="white"/>
</clipPath>
</defs>
</svg>
