<svg width="196" height="49" viewBox="0 0 196 49" fill="none" xmlns="http://www.w3.org/2000/svg">
<g clip-path="url(#clip0_33_2994)">
<path d="M0 21.6085C0.123654 20.8963 0.218021 20.1778 0.37747 19.4718C2.36244 10.7367 7.65678 4.62782 16.3353 1.49964C30.331 -3.54248 45.778 4.60272 49.1589 18.6435C52.3056 31.7084 43.6238 44.8173 30.0023 47.5439C28.8732 47.7698 27.7147 47.8545 26.5693 48.0082C26.4554 48.0239 26.3415 48.049 26.2276 48.071H23.4942C23.3673 48.049 23.2404 48.0176 23.1135 48.0082C20.8031 47.8639 18.5448 47.4497 16.3906 46.6402C7.72836 43.396 2.3722 37.3906 0.37747 28.6336C0.218021 27.9276 0.123654 27.2091 0 26.4969C0 26.3463 0 26.1957 0 26.0451C0.117146 26.0513 0.234291 26.0639 0.348183 26.0639C11.08 26.0639 21.8119 26.0639 32.5437 26.0639C32.6706 26.0639 32.7943 26.0513 32.9245 26.0451V22.0383H32.4656C21.7859 22.0383 11.1061 22.0383 0.42628 22.0383C0.283102 22.0383 0.139924 22.0509 0 22.0572C0 21.9066 0 21.756 0 21.6054L0 21.6085Z" fill="#2151F5"/>
<path d="M59.2041 4.00382C59.3147 3.99441 59.4156 3.97559 59.5165 3.97559C64.4724 3.98814 69.4316 3.96931 74.3875 4.02893C76.571 4.05716 78.7056 4.45878 80.7134 5.33417C83.9511 6.74295 85.7246 9.20282 86.2583 12.5381C86.5186 14.1759 86.5479 15.8106 86.0077 17.4108C85.3243 19.4251 83.9479 20.9217 82.1354 22.0701C81.5659 22.4309 80.9574 22.7384 80.4075 23.049C81.1331 23.3565 81.9108 23.6169 82.6202 23.9935C85.3081 25.4211 86.8342 27.6676 87.3419 30.5385C87.7551 32.8634 87.5534 35.1664 86.6357 37.369C85.3699 40.4 82.9489 42.2323 79.8087 43.2583C77.8042 43.9141 75.7282 44.1211 73.6228 44.1211C68.9532 44.1211 64.2804 44.1211 59.6109 44.1211C59.4839 44.1211 59.357 44.1117 59.2106 44.1023V4.00382H59.2041ZM64.6676 25.4368V39.7411C64.8011 39.7505 64.915 39.763 65.0288 39.763C67.9412 39.763 70.8568 39.7818 73.7692 39.7505C74.6478 39.7411 75.5427 39.672 76.3985 39.49C78.9334 38.9535 80.7817 37.5793 81.6505 35.1602C82.194 33.6416 82.1614 32.079 81.8458 30.5228C81.439 28.5273 80.3326 27.0369 78.3704 26.1929C77.2771 25.7223 76.1186 25.4681 74.9309 25.4524C71.602 25.4117 68.2699 25.4179 64.941 25.4054C64.8531 25.4054 64.7653 25.4242 64.6676 25.4368ZM64.6676 21.0912C64.7913 21.1006 64.8922 21.1163 64.9931 21.1163C67.6972 21.1163 70.4045 21.1508 73.1086 21.0943C74.1109 21.0724 75.1457 20.9563 76.1024 20.6833C78.2696 20.062 79.9129 18.8101 80.5995 16.6358C80.9867 15.4121 80.9477 14.1665 80.7296 12.9146C80.401 11.0195 79.3044 9.73621 77.4463 9.04908C76.3562 8.64747 75.2238 8.40274 74.0621 8.38705C71.0196 8.34312 67.977 8.3494 64.9345 8.33685C64.8466 8.33685 64.7588 8.35881 64.6709 8.37136V21.0912H64.6676Z" fill="#2151F5"/>
<path d="M131.343 32.4898H136.817C136.917 33.1675 136.96 33.8327 137.122 34.4727C137.705 36.7883 139.283 38.2975 141.467 39.2827C143.331 40.1236 145.313 40.384 147.353 40.3589C149.11 40.3369 150.815 40.089 152.449 39.4176C157.197 37.4691 156.767 31.7242 154.294 29.6534C153.425 28.9286 152.446 28.3795 151.385 28.0062C149.192 27.2374 146.972 26.5283 144.753 25.8255C142.14 24.9972 139.605 24.012 137.318 22.5122C135.095 21.0532 133.484 19.155 132.934 16.5759C132.121 12.7606 133.166 9.49747 136.221 6.87444C138.606 4.82559 141.444 3.84666 144.577 3.56114C147.337 3.31013 150.064 3.44818 152.706 4.32671C156.65 5.63509 159.517 8.05104 160.929 11.9134C161.313 12.9582 161.508 14.0407 161.534 15.1514C161.534 15.2738 161.534 15.393 161.534 15.5342H156.038C155.983 14.982 155.963 14.4423 155.869 13.9152C155.368 11.1573 153.751 9.26215 150.988 8.38048C147.919 7.40155 144.835 7.43607 141.847 8.68797C138.424 10.1187 137.718 13.6328 138.483 15.917C138.889 17.1312 139.758 17.9941 140.806 18.7126C142.358 19.7762 144.115 20.4351 145.905 21.0062C147.864 21.6306 149.856 22.1639 151.801 22.826C154.066 23.5978 156.194 24.6364 158.033 26.1707C160.405 28.1473 161.573 30.648 161.622 33.6664C161.668 36.5436 160.747 39.0317 158.554 41.0303C157.04 42.4077 155.257 43.3616 153.266 43.8949C147.269 45.5045 141.558 44.9084 136.319 41.5417C133.133 39.4929 131.529 36.5216 131.347 32.8381C131.34 32.7408 131.347 32.6404 131.347 32.4929L131.343 32.4898Z" fill="#2151F5"/>
<path d="M168.729 4.00024H194.898V8.33327H174.183V21.2602H192.249V25.6183H174.189V39.7626H195.132V44.0925H168.729V4.00024Z" fill="#2151F5"/>
<path d="M128.281 44.1242C128.112 44.1242 127.988 44.1242 127.861 44.1242C126.26 44.1242 124.663 44.118 123.062 44.1305C122.762 44.1305 122.642 44.0332 122.541 43.7665C121.314 40.4972 120.071 37.2341 118.844 33.9647C118.737 33.6792 118.604 33.5913 118.291 33.5913C112.737 33.6007 107.182 33.6007 101.627 33.5913C101.318 33.5913 101.181 33.6698 101.074 33.9616C99.8733 37.2403 98.6498 40.5097 97.4393 43.7854C97.3644 43.983 97.3091 44.1305 97.026 44.1305C95.3079 44.118 93.593 44.1242 91.8748 44.1211C91.813 44.1211 91.7479 44.1085 91.6438 44.096C91.6894 43.9642 91.7251 43.8481 91.7707 43.7383C96.9772 30.6075 102.187 17.4766 107.387 4.34578C107.498 4.06967 107.621 3.96299 107.94 3.96613C109.294 3.98496 110.644 3.98182 111.998 3.96613C112.265 3.96613 112.405 4.02888 112.509 4.2893C117.718 17.4452 122.938 30.5981 128.154 43.754C128.193 43.8575 128.226 43.9642 128.278 44.1211L128.281 44.1242ZM109.961 10.5174C107.576 16.802 105.229 22.9894 102.87 29.205H117.051C114.689 22.9768 112.34 16.7895 109.961 10.5174Z" fill="#2151F5"/>
</g>
<defs>
<clipPath id="clip0_33_2994">
<path d="M0 20C0 8.95432 8.95431 0 20 0H175.132C186.178 0 195.132 8.95431 195.132 20V48.0743H0V20Z" fill="white"/>
</clipPath>
</defs>
</svg>
