<svg width="881" height="266" viewBox="0 0 881 266" fill="none" xmlns="http://www.w3.org/2000/svg">
<g style="mix-blend-mode:overlay" opacity="0.8">
<mask id="mask0_75_42" style="mask-type:alpha" maskUnits="userSpaceOnUse" x="0" y="0" width="881" height="258">
<path d="M0 0.890625H881V257.11H0V0.890625Z" fill="#D9D9D9"/>
</mask>
<g mask="url(#mask0_75_42)">
<path d="M580.529 148.553C587.975 155.733 594.463 151.786 600.918 147.72C602.379 146.801 603.747 145.747 605.149 144.756C611.219 140.484 614.903 141.332 617.913 147.966C619.34 151.105 620.255 154.441 621.4 157.683C622.375 157.413 622.965 157.413 623.273 157.144C627.701 153.123 631.881 153.509 635.814 158.301C641.345 165.038 642.884 165.078 648.722 158.262C651.954 154.489 654.954 150.558 658.93 145.612C661.751 150.352 664.563 153.918 666.085 157.897C668.188 163.405 672.933 162.93 677.292 162.835C681.464 162.747 685.294 162.264 687.654 157.485C689.722 153.292 693.672 149.472 697.741 146.666C703.11 142.957 707.735 145.026 709.709 150.946C710.599 153.617 711.65 156.233 713.078 160.108C715.676 158.8 718.25 158.095 719.9 156.542C722.165 154.418 723.704 151.636 725.61 149.171C727.568 146.65 729.867 146.753 731.902 148.925C733.21 150.32 734.005 152.111 735.074 153.696C738.955 159.427 743.152 160.655 748.777 156.32C754.813 151.667 760.404 151.002 767.405 154.045C782.648 160.663 799.138 163.175 815.484 166.211C818.971 166.861 823.998 166.908 825.246 171.592C826.46 176.142 824.323 179.32 820.912 182.768C811.457 192.334 799.249 197.866 787.452 204.167C773.689 211.514 758.078 211.887 743.195 214.938C730.167 217.609 716.925 219.368 703.777 221.524C682.721 224.964 661.691 228.594 640.584 231.764C626.649 233.856 612.587 235.204 598.618 237.09C595.797 237.471 593.121 238.77 589.873 239.809C622.153 241.766 653.817 243.684 685.474 245.61C686.73 245.689 688.124 245.452 689.209 245.888C690.466 246.387 692.484 247.647 692.355 248.241C692.065 249.589 690.868 250.984 689.637 251.856C688.765 252.474 687.218 252.339 685.969 252.434C677.66 253.052 669.359 253.734 661.041 254.202C654.997 254.542 649.688 253.14 643.892 250.714C637.327 247.964 629.137 248.416 621.623 247.79C616.169 247.338 610.672 247.441 605.192 247.227C595.626 246.847 586.06 246.284 576.494 246.038C565.184 245.745 553.865 245.563 542.555 245.634C538.58 245.658 534.622 246.744 530.629 247.029C512.489 248.313 495.015 252.878 477.251 256.04C459.179 259.258 441.021 262.159 422.846 264.822C400.953 268.024 379.043 271.297 357.038 273.683C331.246 276.481 305.369 278.692 279.466 280.459C268.96 281.181 258.274 280.499 247.759 279.572C244.023 279.239 238.347 276.972 237.423 274.396C235.585 269.26 241.296 267.517 245.673 266.367C259.248 262.809 272.738 258.767 286.553 256.262C309.353 252.125 332.306 248.598 355.32 245.681C372.571 243.494 389.994 242.059 407.382 241.354C439.405 240.046 471.463 239.389 503.513 238.731C515.113 238.493 526.74 239.103 538.358 239.175C558.96 239.309 578.768 234.134 598.917 231.257C608.15 229.941 617.408 228.744 626.598 227.215C640.208 224.956 653.723 222.19 667.367 220.121C683.499 217.672 699.776 216.04 715.89 213.511C743.793 209.136 771.816 204.88 797.181 192.207C805.746 187.927 814.663 183.774 819.339 173.812C815.458 172.631 812.038 171.426 808.533 170.546C793.701 166.821 778.869 163.049 763.951 159.641C761.07 158.983 757.258 158.975 754.753 160.203C742.973 165.981 739.425 165.815 729.714 157.786C725.875 160.187 722.293 164.055 718.292 164.467C714.215 164.887 709.735 161.899 705.042 160.267C696.177 170.388 682.687 167.352 670.496 166.837C666.239 166.655 662.238 161.392 658.169 158.483C654.048 161.662 650.082 166.338 644.927 168.28C638.361 170.744 634.181 164.895 628.103 159.458C627.222 161.21 626.778 162.946 625.658 164.15C621.486 168.628 618.015 168.026 615.938 162.312C614.356 157.968 613.407 153.427 612.031 148.45C604.252 152.492 597.378 156.058 590.488 159.641C590.42 159.862 590.283 160.1 590.317 160.306C592.352 171.751 589.608 174.517 577.186 172.147C570.809 170.935 564.611 168.597 558.593 166.203C555.327 164.903 552.908 164.658 550.48 167.17C549.984 167.685 549.351 168.145 548.693 168.47C538.734 173.376 535.571 175.777 527.03 167.146C518.106 169.746 509.719 172.583 501.111 174.612C489.929 177.251 481.568 173.701 475.114 164.911C473.583 162.827 470.916 161.456 468.745 159.744C472.617 153.585 476.302 146.69 481.106 140.548C483.44 137.56 487.586 135.325 491.416 133.938C496.768 131.996 503.162 134.817 504.932 138.915C506.454 142.434 503.385 149.583 499.042 151.572C494.537 153.633 489.681 155.044 485.141 157.049C483.244 157.889 480.158 159.894 480.38 160.718C481.055 163.223 482.5 166.266 484.697 167.566C494.955 173.645 517.96 167.542 523.731 157.437C524.603 155.908 524.158 153.776 524.774 152.064C525.97 148.703 527.484 145.446 529.039 141.729C534.861 146.127 535.673 148.949 533.485 153.997C532.844 155.48 531.185 157.231 531.596 158.349C532.767 161.511 534.211 164.982 536.742 167.099C537.614 167.828 542.615 165.45 544.718 163.54C551.736 157.152 552.66 157.136 561.337 161.376C566.842 164.063 572.895 165.941 578.887 167.582C583.478 168.842 585.213 167.186 584.077 162.858C583.393 160.243 581.409 157.952 580.264 155.408C579.46 153.641 579.093 151.699 578.528 149.837C579.187 149.409 579.845 148.988 580.503 148.561L580.529 148.553ZM485.047 246.331C404.116 244.168 324.288 249.771 246.639 272.66C250.828 274.016 254.974 274.357 259.112 274.261C294.29 273.429 329.083 268.991 363.826 264.339C397.987 259.765 432.062 254.645 466.163 249.692C472.489 248.773 478.755 247.465 485.047 246.339V246.331ZM481.089 150.431L482.867 152.42C486.894 150.304 491.168 148.497 494.81 145.913C496.238 144.899 496.221 142.149 496.862 140.191C494.802 140.27 492.015 139.589 490.818 140.571C487.244 143.512 484.287 147.102 481.089 150.439V150.431Z" fill="#F4F701"/>
<path d="M368.647 132.074C368.964 140.975 367.194 148.853 363.569 156.303C358.081 167.589 340.53 181.063 321.749 178.883C313.294 177.901 306.387 170.918 305.6 161.399C307.78 163.111 309.293 163.959 310.31 165.164C318.594 175.008 330.161 176.957 340.761 169.404C346.446 165.354 352.046 160.654 356.046 155.217C364.356 143.931 363.569 131.876 356.602 120.067C354.824 117.055 352.14 114.289 354.721 108.995C375.88 133.969 403.629 149.78 432.857 165.56C435.08 154.187 441.423 146.134 449.091 138.875C462.958 125.766 479.525 116.524 497.982 110.176C530.151 99.1195 563.534 92.9533 597.584 89.8386C621.623 87.6431 645.696 85.5111 669.804 84.1321C688.936 83.0383 708.111 83.8468 727.004 87.3023C731.056 88.0474 735.185 89.3472 736.698 94.0233C727.038 88.3089 716.147 89.149 705.7 89.0064C687.833 88.7686 669.932 89.1252 652.082 89.9654C618.571 91.5426 585.12 94.5543 552.326 101.069C524.466 106.609 496.811 113.631 472.592 128.635C459.196 136.933 447.151 146.412 441.722 161.193C440.85 163.579 440.372 166.171 440.235 168.691C439.936 174.326 437.636 175.848 432.25 173.066C425.634 169.642 419.136 165.964 412.879 162.01C401.406 154.773 390.088 147.315 378.812 139.818C375.256 137.448 372.024 134.658 368.647 132.059V132.074Z" fill="#F4F701"/>
<path d="M177.728 166.568C170.624 164.476 164.195 164.317 157.741 168.843C152.133 172.782 151.243 185.994 155.937 190.821C159.348 194.332 163.46 194.387 167.743 193.04C172.889 191.423 175.907 187.571 175.77 183.125C175.667 179.717 175.368 176.317 175.146 172.6C181.361 172.489 181.275 176.388 181.857 179.289C182.814 184.068 184.438 188.269 189.003 191.177C195.424 195.275 201.536 193.294 203.382 186.153C204.075 183.482 204.049 180.66 204.451 176.975C206.46 177.767 207.948 178.195 209.23 178.94C209.674 179.202 209.555 180.248 209.76 180.922C211.367 186.16 212.752 192.414 220.164 191.954C226.875 191.534 228.832 185.74 230.328 180.406C230.439 180.002 230.875 179.669 231.807 178.48C237.74 185.265 245.331 188.8 254.752 187.175C260.146 186.248 264.54 183.577 267.883 178.797C257.06 167.797 250.033 155.052 249.213 140.025C249.042 136.879 251.29 133.613 252.623 129.849C264.626 133.344 271.354 140.477 275.953 149.687C280.518 158.841 281.099 168.185 276.5 177.157C280.954 182.816 289.708 184.821 289.947 193.476C284.673 193.515 282.578 190.385 279.937 188.047C274.543 183.26 273.525 183.18 267.977 187.484C259.403 194.134 250.179 195.893 239.937 190.995C238.398 190.258 236.74 189.727 236.287 189.553C231.26 192.691 227.362 196.147 222.72 197.756C217.565 199.547 212.23 198.152 208.597 193.714C199.091 201.829 193.167 201.663 181.506 193.848C175.394 195.79 170.008 197.502 164.614 199.198C159.869 200.696 156.168 198.723 152.945 195.885C147.08 190.718 145.798 180.478 149.217 173.099C154.099 162.55 161.767 160.854 170.948 161.377C173.556 161.527 176.044 163.62 178.582 164.825C178.3 165.403 178.01 165.982 177.728 166.56V166.568ZM257.368 136.308C250.401 146.033 258.462 165.696 271.388 171.625C276.338 160.045 270.448 143.378 257.368 136.308Z" fill="#F4F701"/>
<path d="M119.253 140.286C120.365 134.777 124.22 133.034 127.571 131.369C151.354 119.497 175.436 108.147 199.039 95.9814C212.863 88.8562 226.883 81.8341 237.859 70.6906C245.22 63.2088 244.459 54.2131 234.901 49.1645C225.036 43.9573 214.188 42.2375 202.929 42.079C166.964 41.5638 132.196 47.4209 98.1209 57.9461C77.108 64.4452 57.5227 73.2347 39.6643 85.3451C32.338 90.3066 32.2354 90.8693 36.4158 98.2402C32.1927 97.5586 29.0809 95.9497 29.3801 93.2549C29.7392 90.0609 30.8847 85.5987 33.3553 84.1642C47.8113 75.763 62.1305 67.1874 78.1338 61.156C98.5739 53.4523 119.638 48.0628 141.078 43.6562C162.784 39.1861 184.729 37.387 206.938 38.8215C211.956 39.1465 217.18 38.9246 221.933 40.1847C228.609 41.9522 235.543 44.0128 241.27 47.4922C250.435 53.056 250.648 65.1981 241.971 73.3615C236.526 78.4815 230.268 82.9595 223.925 87.1522C199.407 103.352 173.025 116.588 145.926 128.667C138.54 131.956 131.615 136.133 124.391 139.747C123.263 140.31 121.664 140.064 119.245 140.286H119.253Z" fill="#F4F701"/>
<path d="M122.092 210.539C115.526 208.43 115.03 203.833 114.543 199.942C112.868 186.5 111.414 173.026 110.448 159.529C109.474 145.833 109.568 132.075 108.448 118.387C107.824 110.731 105.669 103.178 104.233 95.5769C103.78 93.1754 103.395 90.766 102.968 88.3011C108.379 86.9617 109.072 90.2746 109.576 92.7871C111.859 104.263 114.8 115.732 115.706 127.327C117.193 146.23 117.014 165.235 118.134 184.17C118.51 190.55 118.552 197.2 122.562 203.128C123.63 204.713 122.348 207.669 122.092 210.531V210.539Z" fill="#F4F701"/>
</g>
</g>
</svg>
