<svg width="881" height="258" viewBox="0 0 881 258" fill="none" xmlns="http://www.w3.org/2000/svg">
<g style="mix-blend-mode:overlay" opacity="0.8">
<mask id="mask0_187_2360" style="mask-type:alpha" maskUnits="userSpaceOnUse" x="0" y="0" width="881" height="258">
<rect y="0.890381" width="881" height="256.219" fill="#D9D9D9"/>
</mask>
<g mask="url(#mask0_187_2360)">
<path d="M594.529 148.552C601.975 155.733 608.463 151.786 614.918 147.72C616.38 146.801 617.747 145.746 619.149 144.756C625.219 140.484 628.904 141.332 631.913 147.966C633.34 151.104 634.255 154.441 635.401 157.682C636.375 157.413 636.965 157.413 637.273 157.143C641.701 153.123 645.881 153.508 649.814 158.301C655.345 165.037 656.884 165.077 662.723 158.261C665.954 154.488 668.955 150.557 672.93 145.612C675.751 150.351 678.563 153.918 680.085 157.896C682.188 163.405 686.933 162.929 691.293 162.834C695.464 162.747 699.294 162.263 701.654 157.484C703.722 153.292 707.672 149.471 711.741 146.666C717.11 142.957 721.735 145.025 723.71 150.946C724.599 153.617 725.65 156.232 727.078 160.108C729.677 158.8 732.25 158.095 733.9 156.541C736.165 154.417 737.704 151.635 739.61 149.17C741.568 146.65 743.868 146.753 745.902 148.925C747.21 150.32 748.005 152.111 749.074 153.696C752.955 159.426 757.152 160.655 762.777 156.319C768.813 151.667 774.404 151.001 781.405 154.045C796.648 160.662 813.138 163.175 829.484 166.21C832.971 166.86 837.998 166.908 839.246 171.592C840.46 176.141 838.323 179.319 834.912 182.767C825.457 192.333 813.25 197.866 801.452 204.166C787.689 211.514 772.079 211.886 757.195 214.937C744.167 217.608 730.925 219.368 717.777 221.524C696.721 224.963 675.691 228.593 654.584 231.764C640.65 233.856 626.587 235.203 612.618 237.09C609.797 237.47 607.121 238.77 603.873 239.808C636.153 241.766 667.818 243.684 699.474 245.61C700.73 245.689 702.124 245.451 703.21 245.887C704.466 246.386 706.484 247.647 706.355 248.241C706.065 249.588 704.868 250.983 703.637 251.855C702.765 252.473 701.218 252.339 699.97 252.434C691.66 253.052 683.359 253.733 675.041 254.201C668.997 254.542 663.688 253.139 657.892 250.714C651.327 247.964 643.137 248.415 635.623 247.789C630.169 247.337 624.672 247.441 619.192 247.227C609.626 246.846 600.06 246.283 590.494 246.038C579.184 245.744 567.865 245.562 556.555 245.633C552.58 245.657 548.622 246.743 544.63 247.028C526.489 248.312 509.015 252.878 491.251 256.04C473.179 259.258 455.021 262.158 436.847 264.821C414.953 268.023 393.043 271.297 371.038 273.682C345.246 276.48 319.369 278.691 293.466 280.459C282.96 281.18 272.274 280.498 261.759 279.571C258.023 279.238 252.347 276.972 251.424 274.396C249.586 269.26 255.296 267.516 259.673 266.367C273.249 262.808 286.739 258.766 300.553 256.262C323.353 252.125 346.306 248.598 369.32 245.681C386.571 243.494 403.994 242.059 421.382 241.354C453.406 240.046 485.464 239.388 517.513 238.73C529.114 238.492 540.74 239.103 552.358 239.174C572.96 239.309 592.768 234.133 612.917 231.256C622.15 229.941 631.408 228.744 640.598 227.214C654.208 224.955 667.724 222.189 681.367 220.121C697.499 217.672 713.776 216.039 729.89 213.511C757.794 209.136 785.816 204.88 811.181 192.207C819.747 187.927 828.663 183.774 833.339 173.811C829.458 172.63 826.038 171.426 822.533 170.546C807.701 166.821 792.869 163.048 777.952 159.64C775.071 158.982 771.258 158.974 768.753 160.203C756.973 165.981 753.425 165.814 743.714 157.785C739.875 160.187 736.293 164.055 732.293 164.467C728.215 164.887 723.735 161.899 719.042 160.266C710.177 170.387 696.687 167.352 684.496 166.837C680.239 166.654 676.238 161.392 672.169 158.483C668.048 161.661 664.082 166.337 658.927 168.279C652.361 170.744 648.181 164.895 642.103 159.458C641.222 161.209 640.778 162.945 639.658 164.15C635.486 168.628 632.015 168.025 629.938 162.311C628.356 157.968 627.408 153.426 626.031 148.449C618.252 152.491 611.379 156.058 604.488 159.64C604.42 159.862 604.283 160.1 604.317 160.306C606.352 171.75 603.608 174.517 591.186 172.147C584.809 170.934 578.611 168.596 572.593 166.203C569.327 164.903 566.908 164.657 564.48 167.169C563.984 167.685 563.351 168.144 562.693 168.469C552.734 173.375 549.571 175.777 541.031 167.146C532.106 169.745 523.719 172.583 515.111 174.612C503.929 177.251 495.568 173.7 489.114 164.911C487.584 162.826 484.916 161.455 482.745 159.743C486.618 153.585 490.302 146.69 495.107 140.547C497.44 137.559 501.587 135.324 505.416 133.937C510.768 131.995 517.162 134.817 518.932 138.914C520.454 142.433 517.385 149.582 513.042 151.572C508.537 153.632 503.681 155.043 499.142 157.048C497.244 157.889 494.158 159.894 494.38 160.718C495.055 163.222 496.5 166.266 498.697 167.566C508.956 173.645 531.96 167.542 537.731 157.437C538.603 155.907 538.158 153.775 538.774 152.063C539.971 148.703 541.484 145.445 543.04 141.728C548.861 146.127 549.673 148.948 547.485 153.997C546.844 155.479 545.185 157.231 545.596 158.348C546.767 161.511 548.212 164.982 550.742 167.098C551.614 167.827 556.615 165.45 558.718 163.54C565.737 157.151 566.66 157.136 575.337 161.376C580.842 164.063 586.895 165.941 592.888 167.582C597.478 168.842 599.214 167.185 598.077 162.858C597.393 160.242 595.409 157.952 594.264 155.408C593.46 153.64 593.093 151.699 592.528 149.836C593.187 149.408 593.845 148.988 594.503 148.56L594.529 148.552ZM499.048 246.331C418.116 244.167 338.288 249.771 260.639 272.66C264.828 274.015 268.974 274.356 273.112 274.261C308.29 273.429 343.084 268.99 377.826 264.338C411.987 259.765 446.062 254.645 480.163 249.691C486.489 248.772 492.756 247.464 499.048 246.339V246.331ZM495.089 150.43L496.868 152.42C500.894 150.304 505.168 148.497 508.81 145.913C510.238 144.898 510.221 142.148 510.862 140.191C508.802 140.27 506.015 139.588 504.818 140.571C501.245 143.511 498.287 147.102 495.089 150.438V150.43Z" fill="black"/>
<path d="M382.647 132.075C382.964 140.975 381.194 148.853 377.569 156.304C372.081 167.59 354.53 181.063 335.749 178.884C327.294 177.901 320.387 170.919 319.6 161.4C321.78 163.112 323.293 163.96 324.31 165.164C332.594 175.008 344.161 176.958 354.761 169.405C360.446 165.355 366.046 160.655 370.046 155.218C378.356 143.932 377.569 131.877 370.602 120.067C368.824 117.056 366.14 114.29 368.721 108.995C389.88 133.969 417.629 149.781 446.857 165.561C449.08 154.187 455.423 146.135 463.091 138.875C476.958 125.766 493.525 116.525 511.982 110.176C544.151 99.12 577.534 92.9538 611.584 89.839C635.623 87.6436 659.696 85.5116 683.804 84.1326C702.936 83.0388 722.111 83.8472 741.004 87.3028C745.056 88.0478 749.185 89.3476 750.698 94.0238C741.038 88.3094 730.147 89.1495 719.7 89.0068C701.833 88.7691 683.932 89.1257 666.082 89.9658C632.571 91.5431 599.12 94.5548 566.326 101.07C538.466 106.61 510.811 113.632 486.592 128.635C473.196 136.933 461.151 146.412 455.722 161.194C454.85 163.579 454.372 166.171 454.235 168.691C453.936 174.327 451.636 175.848 446.25 173.066C439.634 169.642 433.136 165.965 426.879 162.01C415.406 154.774 404.088 147.316 392.812 139.818C389.256 137.448 386.024 134.659 382.647 132.059V132.075Z" fill="black"/>
<path d="M191.728 166.568C184.624 164.475 178.195 164.317 171.741 168.842C166.133 172.781 165.244 185.994 169.937 190.82C173.348 194.331 177.46 194.387 181.743 193.039C186.889 191.423 189.907 187.571 189.77 183.124C189.668 179.716 189.368 176.316 189.146 172.599C195.361 172.488 195.276 176.388 195.857 179.288C196.814 184.068 198.439 188.268 203.004 191.177C209.424 195.274 215.536 193.293 217.383 186.152C218.075 183.481 218.05 180.66 218.451 176.974C220.46 177.767 221.948 178.195 223.23 178.94C223.675 179.201 223.555 180.247 223.76 180.921C225.367 186.16 226.752 192.413 234.164 191.954C240.875 191.534 242.832 185.74 244.329 180.406C244.44 180.002 244.876 179.669 245.807 178.48C251.74 185.264 259.332 188.799 268.752 187.174C274.147 186.247 278.541 183.576 281.883 178.797C271.061 167.796 264.033 155.052 263.213 140.025C263.042 136.878 265.29 133.613 266.624 129.848C278.626 133.343 285.354 140.476 289.953 149.686C294.518 158.84 295.1 168.185 290.5 177.156C294.954 182.815 303.708 184.821 303.948 193.475C298.673 193.515 296.579 190.384 293.937 188.046C288.543 183.259 287.525 183.18 281.977 187.484C273.403 194.133 264.179 195.893 253.937 190.995C252.399 190.258 250.74 189.726 250.287 189.552C245.26 192.691 241.362 196.146 236.72 197.755C231.565 199.546 226.231 198.151 222.598 193.713C213.091 201.829 207.167 201.663 195.506 193.848C189.394 195.79 184.008 197.502 178.614 199.198C173.869 200.696 170.168 198.722 166.945 195.885C161.08 190.717 159.798 180.477 163.218 173.098C168.099 162.549 175.767 160.853 184.949 161.376C187.556 161.527 190.044 163.619 192.583 164.824C192.301 165.403 192.01 165.981 191.728 166.56V166.568ZM271.368 136.308C264.401 146.032 272.463 165.696 285.388 171.624C290.338 160.045 284.448 143.377 271.368 136.308Z" fill="black"/>
<path d="M133.254 140.286C134.365 134.777 138.22 133.034 141.572 131.369C165.354 119.497 189.436 108.147 213.039 95.9814C226.863 88.8562 240.883 81.8341 251.859 70.6906C259.22 63.2088 258.459 54.2131 248.901 49.1645C239.036 43.9573 228.188 42.2375 216.929 42.079C180.964 41.5638 146.196 47.4209 112.121 57.9461C91.1081 64.4452 71.5228 73.2347 53.6644 85.3451C46.3381 90.3066 46.2355 90.8693 50.4159 98.2402C46.1928 97.5586 43.081 95.9497 43.3802 93.2549C43.7393 90.0609 44.8848 85.5987 47.3554 84.1642C61.8114 75.763 76.1306 67.1874 92.1339 61.156C112.574 53.4523 133.638 48.0628 155.079 43.6562C176.784 39.1861 198.729 37.387 220.938 38.8215C225.957 39.1465 231.18 38.9246 235.933 40.1847C242.61 41.9522 249.543 44.0128 255.27 47.4922C264.435 53.056 264.648 65.1981 255.971 73.3615C250.526 78.4815 244.268 82.9595 237.925 87.1522C213.407 103.352 187.025 116.588 159.926 128.667C152.54 131.956 145.615 136.133 138.391 139.747C137.263 140.31 135.664 140.064 133.245 140.286H133.254Z" fill="black"/>
<path d="M136.092 210.539C129.526 208.431 129.031 203.834 128.543 199.942C126.868 186.501 125.414 173.027 124.448 159.53C123.474 145.834 123.568 132.075 122.448 118.387C121.824 110.731 119.67 103.178 118.233 95.5774C117.78 93.1759 117.396 90.7665 116.968 88.3016C122.38 86.9622 123.072 90.2751 123.576 92.7876C125.859 104.264 128.8 115.732 129.706 127.328C131.193 146.23 131.014 165.236 132.134 184.17C132.51 190.551 132.553 197.2 136.562 203.129C137.631 204.714 136.348 207.67 136.092 210.531V210.539Z" fill="black"/>
</g>
</g>
</svg>
