<svg width="1440" height="2146" viewBox="0 0 1440 2146" fill="none" xmlns="http://www.w3.org/2000/svg">
<g style="mix-blend-mode:soft-light">
<path d="M1050.16 504.182C932.267 366.671 760.473 381.407 573.342 474.172L436.137 248.312L298.658 331.827L435.862 557.687C399.856 579.561 361.433 599.914 325.661 624.632L189.782 400.954L52.3003 484.471L189.505 710.331C160.045 728.227 -87.6367 878.688 -87.6367 878.688L1.84467 1025.99C1.84467 1025.99 101.992 962.163 102.227 965.008C157.873 931.204 196.307 952.67 218.333 976.634L594.817 1596.39C605.422 1613.84 609.992 1648.41 572.466 1672.7C575.973 1673.56 472.083 1733.68 472.083 1733.68L544.892 1915.01C544.892 1915.01 790.391 1765.87 823.124 1745.99L962.317 1975.12L1099.8 1891.61L959.943 1661.38C997.041 1638.85 1034.8 1617.4 1070.14 1594.44L1209.34 1823.57L1346.82 1740.05L1208.29 1512.01C1420.2 1386.27 1538.24 1192.07 1438.34 980.896C1376.34 854.245 1197.32 788.228 1072.21 813.436C1127.34 724.679 1135.07 616.913 1050.82 505.273L1050.16 504.182ZM1155.73 1110.75C1252.13 1321.07 955.445 1440.05 862.272 1498.14L674.734 1196.8C768.57 1139.8 1046.6 933.56 1154.64 1111.41L1155.73 1110.75ZM836.556 720.579C926.904 906.19 673.48 1007.86 596.011 1054.92L425.706 781.946C503.175 734.886 717.879 559.645 836.556 720.579Z" fill="white" fill-opacity="0.2"/>
</g>
</svg>
